# Blender 4.4.3
# www.blender.org
mtllib ../mtl_files/3D_Leaf_07.mtl
o Leaves_07
g Leaf_07
v -0.013253 -0.009179 0.024051
v 0.013553 -0.008737 0.023700
v -0.024701 -0.018638 -0.017185
v 0.021882 -0.018605 -0.015801
v -0.020059 -0.015893 0.004596
v 0.021945 -0.016405 0.004591
v 0.021110 -0.018086 -0.009222
v -0.023516 -0.018006 -0.009018
v -0.021228 -0.014917 -0.001945
v 0.022257 -0.015289 -0.001942
v -0.015439 -0.013304 0.014145
v 0.018222 -0.014164 0.014239
v -0.009558 -0.006950 0.031951
v 0.011592 -0.006287 0.031608
v -0.007727 -0.003450 0.038059
v 0.008407 -0.002791 0.038076
v -0.006287 0.001245 0.043622
v 0.007795 0.000750 0.043391
v -0.005849 0.003464 0.049467
v 0.006177 0.003884 0.049177
v -0.005325 0.005608 0.051985
v 0.006122 0.005988 0.052505
v -0.005278 0.008279 0.055420
v 0.005383 0.008451 0.055672
v -0.003714 0.011247 0.059777
v 0.004114 0.011299 0.059940
v -0.012578 -0.007289 -0.042004
v -0.002038 0.016628 0.065414
v -0.014185 -0.007627 -0.035098
v -0.001541 0.018394 0.067038
v -0.013204 -0.009869 -0.027123
v -0.001549 0.019611 0.069114
v -0.008245 -0.005043 0.013906
v -0.024831 -0.018866 -0.027310
v 0.022428 -0.018528 -0.027220
v -0.027008 -0.017160 -0.035460
v 0.023289 -0.015827 -0.035348
v -0.025031 -0.017418 -0.042623
v 0.024187 -0.015190 -0.042342
v -0.025264 -0.014163 -0.049162
v 0.022957 -0.010804 -0.048607
v -0.025473 -0.008897 -0.071679
v 0.023864 -0.006231 -0.064841
v -0.025669 -0.009552 -0.063013
v 0.021598 -0.006055 -0.058772
v -0.025126 -0.013748 -0.056154
v 0.022989 -0.010264 -0.054086
v -0.019587 -0.002277 -0.078489
v 0.023367 -0.000780 -0.071067
v -0.013298 -0.002144 -0.084561
v 0.021857 -0.000513 -0.081397
v -0.008410 -0.000254 -0.090952
v 0.020249 0.001826 -0.087603
v -0.003370 0.000819 -0.094744
v 0.016726 0.002541 -0.092497
v -0.000820 -0.007978 0.023776
v -0.001672 -0.018430 -0.015855
v -0.001370 -0.015558 0.004466
v -0.001853 -0.017778 -0.009049
v -0.001654 -0.014605 -0.002108
v -0.001051 -0.012987 0.014161
v -0.000243 -0.005219 0.031670
v -0.000538 -0.002460 0.037756
v -0.000319 0.001101 0.043310
v -0.000592 0.003658 0.049610
v -0.000441 0.005825 0.052341
v -0.000455 0.008469 0.055492
v -0.000246 0.012267 0.059330
v -0.000182 0.015195 0.062039
v -0.000237 0.017642 0.064635
v -0.000217 0.019530 0.066879
v -0.000405 0.020814 0.069010
v -0.001578 -0.018552 -0.027255
v -0.001363 -0.015937 -0.035356
v -0.000124 -0.015261 -0.042329
v 0.000465 -0.011067 -0.048526
v 0.001271 -0.004950 -0.067357
v 0.001096 -0.005661 -0.060092
v 0.000959 -0.010182 -0.054616
v 0.001753 0.001695 -0.073377
v 0.003686 0.002990 -0.081083
v 0.005897 0.005798 -0.087772
v 0.006241 0.002559 -0.094725
v -0.004622 0.020367 0.071849
v -0.000987 0.023080 0.076267
v -0.003665 0.022621 0.072956
v -0.002641 0.024178 0.077175
v -0.004940 0.023171 0.073858
v -0.007815 0.022403 0.074454
v -0.005051 0.023839 0.077085
v -0.007061 0.024134 0.075541
v -0.002165 0.021909 0.072098
v -0.000833 0.021874 0.073707
v -0.002114 0.022492 0.075335
v -0.011441 -0.005933 -0.002112
v -0.023598 -0.015485 -0.022704
v 0.022503 -0.015529 -0.021513
v -0.001625 -0.015371 -0.021553
v 0.000149 -0.007947 0.023758
v 0.000686 -0.005115 0.031666
v 0.000520 -0.002376 0.037760
v 0.000622 0.000919 0.043331
v 0.000426 0.003961 0.049546
v 0.000567 0.006227 0.052313
v 0.000429 0.008575 0.055506
v 0.000477 0.012274 0.059310
v 0.000611 0.015197 0.062059
v 0.000546 0.017432 0.064779
v 0.000533 0.019323 0.067012
v 0.000298 0.020970 0.069143
v -0.000618 -0.018408 -0.015854
v -0.000327 -0.015783 0.004471
v -0.000825 -0.017796 -0.009058
v -0.000584 -0.014796 -0.002103
v -0.000188 -0.013270 0.014165
v -0.000505 -0.018524 -0.027254
v -0.000267 -0.015887 -0.035351
v 0.000953 -0.015183 -0.042318
v 0.001450 -0.010886 -0.048504
v 0.002246 -0.004799 -0.067198
v 0.002026 -0.005453 -0.059985
v 0.001928 -0.009965 -0.054554
v 0.002626 0.001792 -0.073224
v 0.004405 0.003022 -0.081035
v 0.006529 0.005831 -0.087695
v 0.006750 0.002613 -0.094695
v -0.006364 0.024409 0.076059
v -0.001729 0.022306 0.072744
v -0.003229 0.023026 0.073723
v -0.004320 0.023519 0.074581
v -0.000545 -0.015419 -0.021553
v 0.004608 -0.003101 0.023079
v 0.004314 -0.000830 0.030739
v 0.003384 0.000827 0.036059
v 0.003178 0.004733 0.042224
v 0.002309 0.006545 0.048066
v 0.002474 0.009031 0.051397
v 0.002067 0.010443 0.054800
v 0.001697 0.012935 0.058854
v 0.003016 0.013883 0.062957
v 0.001964 0.016657 0.065432
v 0.001736 0.018642 0.067131
v 0.001289 0.020470 0.069509
v -0.012684 -0.008948 -0.009089
v -0.010715 -0.006987 0.004405
v -0.013187 -0.009594 -0.016520
v -0.003289 0.023249 0.076043
v 0.006868 -0.012532 -0.015823
v 0.007083 -0.009961 0.004426
v 0.006473 -0.011925 -0.009149
v 0.007015 -0.008916 -0.002110
v 0.005937 -0.007827 0.014029
v 0.007113 -0.012503 -0.027091
v 0.007516 -0.009690 -0.035050
v 0.008619 -0.008925 -0.041860
v 0.008455 -0.004700 -0.047890
v 0.009203 0.000926 -0.064967
v 0.008627 0.000445 -0.058446
v 0.008805 -0.003929 -0.053546
v 0.008962 0.005626 -0.071216
v 0.009757 0.004197 -0.080270
v 0.011019 0.006467 -0.087201
v 0.010366 0.002978 -0.094824
v 0.007123 -0.009505 -0.021467
v -0.012398 -0.003411 -0.048128
v -0.011773 0.000099 -0.068372
v -0.012221 0.000827 -0.060461
v -0.012055 -0.002730 -0.054395
v -0.008878 0.005195 -0.074504
v -0.005193 0.003887 -0.081825
v -0.001563 0.005970 -0.088993
v 0.000354 0.002317 -0.095674
v -0.007037 -0.000854 0.022737
v -0.004901 0.000328 0.030486
v -0.003923 0.002109 0.035501
v -0.002494 0.006370 0.042084
v -0.002525 0.007176 0.047022
v -0.002357 0.008764 0.050646
v -0.002037 0.010595 0.054292
v -0.001755 0.013929 0.058517
v -0.002562 0.013843 0.062830
v -0.005956 0.021036 0.072477
v -0.003114 0.020085 0.071382
v -0.012612 -0.006572 -0.022052
v 0.010973 -0.004361 0.023183
v 0.009174 -0.001985 0.030878
v 0.007099 0.000117 0.036534
v 0.006806 0.004004 0.042451
v 0.005627 0.006064 0.048386
v 0.004980 0.008453 0.051654
v 0.004231 0.010078 0.054974
v 0.018640 -0.014108 -0.015789
v 0.018761 -0.011719 0.004498
v 0.018010 -0.013541 -0.009203
v 0.018930 -0.010624 -0.002027
v 0.016003 -0.009626 0.014100
v 0.019080 -0.014033 -0.027090
v 0.019801 -0.011231 -0.035108
v 0.020775 -0.010505 -0.041972
v 0.019986 -0.006228 -0.048106
v 0.021328 -0.001373 -0.064495
v 0.020052 -0.001427 -0.058280
v 0.021135 -0.005640 -0.053643
v 0.021170 0.003370 -0.070869
v 0.020560 0.002408 -0.080750
v 0.019518 0.003911 -0.087555
v 0.013995 0.002885 -0.093615
v 0.019124 -0.011048 -0.021445
v -0.019337 -0.012286 -0.017038
v -0.015987 -0.009635 0.004232
v -0.018558 -0.011657 -0.009310
v -0.016892 -0.008613 -0.002294
v -0.012647 -0.007430 0.013753
v -0.004304 0.009668 0.054964
v -0.004087 0.008419 0.050881
v -0.005063 0.006483 0.047458
v -0.005277 0.005204 0.042383
v -0.006953 0.000684 0.035991
v -0.008237 -0.001678 0.030733
v -0.011043 -0.003289 0.022948
v -0.019400 -0.012567 -0.027443
v -0.022438 -0.011282 -0.035570
v -0.020646 -0.011294 -0.042613
v -0.020681 -0.007690 -0.048938
v -0.020298 -0.003421 -0.070327
v -0.020878 -0.003324 -0.062116
v -0.020488 -0.007129 -0.055603
v -0.016394 0.002952 -0.076952
v -0.011474 0.003269 -0.082886
v -0.005348 0.004504 -0.089435
v -0.001459 0.001572 -0.094911
v -0.018548 -0.009200 -0.022558
v -0.001039 0.021425 0.071221
v -0.000502 0.021723 0.071672
v 0.000439 0.021308 0.072702
v -0.002050 0.019871 0.070847
v -0.000610 0.021110 0.070229
v 0.000976 0.020889 0.071296
v 0.000008 0.021336 0.070524
v -0.001685 0.019736 0.070095
vn 0.5093 0.8323 -0.2189
vn 0.8135 0.5682 -0.1236
vn 0.7977 0.5706 0.1952
vn 0.5351 0.8110 0.2366
vn 0.6141 0.7886 -0.0324
vn 0.8526 0.4928 0.1737
vn 0.8297 0.5383 0.1475
vn 0.5864 0.8042 0.0966
vn 0.5060 0.8550 -0.1137
vn 0.8157 0.5686 -0.1063
vn 0.5567 0.8124 -0.1735
vn 0.8633 0.4880 0.1287
vn -0.7544 0.6563 -0.0105
vn -0.9178 0.3750 0.1301
vn -0.9249 0.3087 0.2218
vn -0.7855 0.6152 0.0674
vn -0.9627 0.2507 0.1018
vn -0.8024 0.5857 -0.1144
vn -0.9701 0.2410 0.0300
vn -0.7286 0.6564 -0.1957
vn -0.9576 0.2880 -0.0045
vn -0.7549 0.6385 -0.1501
vn -0.9301 0.3575 -0.0843
vn -0.6455 0.7107 -0.2797
vn -0.8741 0.4557 -0.1684
vn -0.7360 0.6334 -0.2389
vn -0.7677 0.6045 -0.2126
vn -0.1568 0.8845 -0.4395
vn -0.4576 0.7779 -0.4307
vn 0.4665 0.8844 0.0168
vn 0.8013 0.5978 0.0246
vn 0.8011 0.5985 0.0058
vn 0.5427 0.8384 -0.0507
vn 0.7865 0.5772 0.2197
vn 0.4768 0.8456 0.2401
vn 0.8027 0.5630 0.1967
vn 0.5576 0.7768 0.2927
vn 0.8435 0.4991 0.1987
vn 0.4846 0.8166 0.3135
vn 0.5224 0.7791 0.3466
vn 0.9246 0.3517 0.1464
vn 0.8780 0.3914 0.2754
vn 0.6393 0.6890 0.3414
vn 0.6887 0.6802 0.2510
vn 0.9055 0.4097 0.1104
vn 0.8839 0.4472 0.1368
vn 0.5487 0.8108 0.2037
vn 0.9035 0.4187 -0.0921
vn 0.6504 0.7592 -0.0240
vn 0.8274 0.4995 -0.2569
vn 0.5643 0.8071 -0.1736
vn 0.5943 0.6231 -0.5085
vn 0.2870 0.8612 -0.4194
vn -0.1141 0.9829 -0.1443
vn -0.0102 0.9993 -0.0368
vn 0.0213 0.9016 -0.4321
vn -0.1031 0.8562 -0.5062
vn -0.0267 0.9963 0.0814
vn 0.0102 0.9726 0.2322
vn -0.0487 0.9504 0.3073
vn 0.0337 0.8888 0.4571
vn -0.0986 0.9419 0.3210
vn 0.0561 0.9115 0.4075
vn 0.0133 0.9457 0.3248
vn 0.1848 0.9087 0.3743
vn 0.1169 0.9208 0.3720
vn 0.0012 0.9339 0.3575
vn 0.1082 0.9283 0.3557
vn -0.0270 0.9643 0.2634
vn 0.0741 0.9400 0.3330
vn 0.2042 0.9181 0.3398
vn 0.0223 0.9866 0.1616
vn 0.2833 0.9359 0.2096
vn 0.1390 0.9767 -0.1633
vn 0.2839 0.9529 -0.1072
vn 0.1318 0.9911 -0.0208
vn 0.3604 0.9328 -0.0083
vn 0.3732 0.7378 -0.5625
vn -0.2122 0.7877 -0.5784
vn -0.3642 0.8370 -0.4084
vn 0.2435 0.8954 -0.3728
vn 0.3939 0.6975 -0.5987
vn -0.1845 0.7432 -0.6431
vn 0.2469 0.7465 -0.6179
vn -0.0981 0.7777 -0.6210
vn -0.1598 0.7436 -0.6493
vn 0.2559 0.7408 -0.6210
vn -0.4634 0.6790 -0.5694
vn 0.4111 0.6873 -0.5989
vn -0.5787 0.6516 -0.4904
vn 0.3861 0.7307 -0.5630
vn -0.5389 0.7175 -0.4413
vn 0.4608 0.7748 -0.4328
vn -0.4762 0.7678 -0.4286
vn 0.5279 0.7404 -0.4161
vn -0.4375 0.7887 -0.4320
vn 0.4648 0.7649 -0.4461
vn -0.4592 0.8246 -0.3304
vn 0.3732 0.8524 -0.3663
vn -0.3744 0.8444 -0.3831
vn 0.4226 0.8163 -0.3938
vn 0.1144 0.9527 -0.2816
vn 0.4502 0.8203 -0.3527
vn 0.1735 0.9287 -0.3277
vn 0.1236 0.9922 -0.0167
vn 0.4578 0.8856 -0.0789
vn 0.4355 0.8851 -0.1641
vn 0.1251 0.9863 -0.1073
vn 0.3427 0.9061 -0.2482
vn 0.1122 0.9622 -0.2479
vn 0.3038 0.9355 0.1803
vn 0.0919 0.9700 0.2250
vn 0.2500 0.9310 -0.2659
vn -0.1378 0.6984 -0.7023
vn -0.0814 0.7169 -0.6924
vn 0.2536 0.9239 -0.2864
vn 0.0334 0.8153 -0.5781
vn 0.2123 0.9179 -0.3352
vn 0.2275 0.9010 -0.3693
vn 0.0258 0.7737 -0.6330
vn 0.2517 0.9512 -0.1783
vn 0.2233 0.9454 -0.2373
vn -0.3109 0.7662 -0.5624
vn 0.1694 0.9392 -0.2987
vn 0.2269 0.9364 -0.2677
vn -0.1254 0.7572 -0.6411
vn -0.1344 0.7784 -0.6133
vn 0.3565 0.9320 -0.0655
vn -0.3077 0.9360 0.1708
vn -0.3531 0.9355 -0.0129
vn 0.4446 0.8949 -0.0381
vn -0.2998 0.8867 -0.3519
vn -0.3006 0.9072 -0.2943
vn -0.3738 0.8304 -0.4131
vn -0.3437 0.8429 -0.4140
vn -0.4398 0.7897 -0.4276
vn -0.3282 0.8105 -0.4850
vn -0.2608 0.8481 -0.4613
vn 0.1185 0.8591 -0.4979
vn 0.4616 0.7425 -0.4855
vn 0.5444 0.6411 -0.5410
vn 0.5112 0.6633 -0.5465
vn 0.5014 0.8071 -0.3116
vn -0.1171 0.9920 -0.0479
vn -0.0614 0.9068 -0.4171
vn -0.1963 0.9627 0.1862
vn -0.3586 0.8585 0.3667
vn -0.4268 0.8267 0.3667
vn -0.4307 0.8438 0.3203
vn -0.4450 0.8259 0.3461
vn -0.4724 0.8139 0.3382
vn -0.3720 0.8853 0.2789
vn -0.3463 0.9235 0.1648
vn -0.3083 0.9473 -0.0865
vn -0.2435 0.9016 -0.3576
vn -0.2149 0.9752 -0.0529
vn -0.2724 0.9542 -0.1237
vn -0.2862 0.9291 -0.2343
vn -0.7242 0.6891 -0.0259
vn -0.6869 0.7063 0.1714
vn -0.6394 0.7659 -0.0667
vn -0.6362 0.7543 0.1620
vn -0.2860 0.4780 -0.8305
vn -0.2150 0.5153 -0.8296
vn 0.5864 0.7465 -0.3145
vn 0.6125 0.7500 -0.2497
vn 0.6225 0.7077 -0.3342
vn 0.6931 0.6793 -0.2413
vn 0.6688 0.7011 -0.2473
vn 0.6354 0.7406 -0.2187
vn 0.6091 0.7894 -0.0770
vn -0.2526 0.5754 -0.7778
vn -0.3137 0.6088 -0.7287
vn -0.5336 0.5325 -0.6571
vn -0.5539 0.8309 -0.0534
vn -0.2777 0.9401 0.1977
vn -0.2332 0.9724 -0.0004
vn 0.0502 0.9976 -0.0485
vn 0.0407 0.9111 -0.4102
vn -0.0601 0.9943 0.0881
vn -0.1933 0.9413 0.2769
vn -0.2779 0.8919 0.3568
vn -0.2781 0.9041 0.3245
vn -0.3040 0.8626 0.4044
vn -0.2752 0.8960 0.3485
vn -0.2688 0.9055 0.3283
vn -0.2773 0.9442 0.1776
vn -0.3008 0.9491 -0.0934
vn -0.2726 0.8977 -0.3462
vn -0.2556 0.9664 -0.0280
vn -0.2356 0.9663 -0.1040
vn -0.2822 0.9290 -0.2392
vn -0.6211 0.7837 -0.0014
vn -0.6180 0.7860 -0.0178
vn -0.6389 0.7654 0.0769
vn -0.6520 0.7466 0.1321
vn -0.6380 0.7376 0.2211
vn -0.6142 0.7666 0.1873
vn -0.6581 0.7495 0.0711
vn -0.6662 0.7040 0.2462
vn -0.5739 0.8167 -0.0600
vn -0.4826 0.8010 -0.3543
vn -0.4474 0.8200 -0.3569
vn -0.3939 0.7085 -0.5855
vn -0.6113 0.6326 -0.4756
vn -0.6927 0.6408 -0.3308
vn -0.5692 0.6169 -0.5435
vn 0.2311 0.8406 -0.4899
vn 0.3659 0.8270 -0.4269
vn 0.4139 0.8596 -0.2996
vn 0.3620 0.8610 -0.3572
vn 0.2700 0.8547 -0.4433
vn 0.2056 0.9396 -0.2735
vn 0.8620 0.4993 0.0879
vn 0.9115 0.4106 0.0237
vn 0.9524 0.3027 -0.0352
vn 0.9528 0.3037 0.0063
vn 0.9236 0.3699 -0.1004
vn 0.8634 0.4947 -0.0987
vn -0.6414 0.5444 -0.5405
vn -0.5076 0.6076 -0.6109
vn -0.6814 0.4908 -0.5430
vn -0.7740 0.5925 -0.2234
vn -0.7712 0.6366 -0.0024
vn -0.8042 0.5659 0.1816
vn -0.8090 0.5607 0.1765
vn -0.7807 0.5942 0.1935
vn -0.8087 0.5883 0.0019
vn -0.7829 0.6169 0.0803
vn -0.7641 0.6355 0.1110
vn -0.7706 0.6362 -0.0376
vn -0.8777 0.4562 0.1466
vn -0.8223 0.5251 0.2194
vn -0.8125 0.5777 0.0785
vn -0.7882 0.6152 0.0153
vn -0.7694 0.6271 0.1219
vn -0.4549 0.8169 -0.3546
vn -0.7150 0.6059 -0.3487
vn 0.4797 0.8719 -0.0982
vn 0.1845 0.9566 -0.2255
vt 0.497876 0.337422
vt 0.497977 0.308185
vt 0.533312 0.300909
vt 0.533250 0.331476
vt 0.372720 0.356348
vt 0.371972 0.335422
vt 0.423789 0.300306
vt 0.424292 0.330338
vt 0.459335 0.328739
vt 0.458876 0.297366
vt 0.323934 0.403776
vt 0.321157 0.379447
vt 0.325200 0.611387
vt 0.319273 0.632234
vt 0.276843 0.597386
vt 0.283385 0.584925
vt 0.244042 0.580124
vt 0.255145 0.572820
vt 0.214165 0.566544
vt 0.220816 0.557012
vt 0.182772 0.562409
vt 0.193562 0.554998
vt 0.169246 0.557467
vt 0.175175 0.545796
vt 0.150799 0.557024
vt 0.153247 0.547841
vt 0.127399 0.542277
vt 0.134164 0.523801
vt 0.111001 0.531416
vt 0.563623 0.326912
vt 0.563989 0.295052
vt 0.594643 0.295752
vt 0.593940 0.327325
vt 0.638294 0.287639
vt 0.637003 0.320531
vt 0.675858 0.279164
vt 0.673872 0.311348
vt 0.709505 0.290763
vt 0.706816 0.318783
vt 0.761459 0.318157
vt 0.764100 0.303578
vt 0.796694 0.282213
vt 0.794838 0.306128
vt 0.736553 0.307950
vt 0.738933 0.290468
vt 0.830132 0.286900
vt 0.829069 0.307621
vt 0.885612 0.301144
vt 0.882139 0.313371
vt 0.918945 0.316308
vt 0.918686 0.323195
vt 0.945231 0.349524
vt 0.951236 0.375279
vt 0.926412 0.521991
vt 0.919855 0.451645
vt 0.957198 0.448401
vt 0.962292 0.503919
vt 0.887914 0.556219
vt 0.883927 0.472490
vt 0.848596 0.590978
vt 0.842542 0.490721
vt 0.815663 0.618270
vt 0.810211 0.495266
vt 0.706936 0.624168
vt 0.709073 0.502872
vt 0.741778 0.498210
vt 0.740595 0.620931
vt 0.771189 0.496914
vt 0.773172 0.622498
vt 0.674042 0.625862
vt 0.675787 0.508422
vt 0.636951 0.641023
vt 0.638338 0.520103
vt 0.594120 0.631773
vt 0.594830 0.522137
vt 0.566883 0.626184
vt 0.564204 0.522578
vt 0.088538 0.502227
vt 0.089255 0.509302
vt 0.077811 0.511076
vt 0.077095 0.504444
vt 0.100533 0.502101
vt 0.101308 0.509489
vt 0.115142 0.501490
vt 0.115249 0.508974
vt 0.129908 0.502758
vt 0.129800 0.509576
vt 0.150336 0.503211
vt 0.150414 0.511542
vt 0.167483 0.501908
vt 0.167336 0.511411
vt 0.182344 0.503234
vt 0.182002 0.512832
vt 0.215728 0.501383
vt 0.215840 0.510260
vt 0.245644 0.502354
vt 0.245667 0.512324
vt 0.278378 0.500788
vt 0.278356 0.509549
vt 0.320849 0.505849
vt 0.320752 0.514983
vt 0.326334 0.573608
vt 0.372390 0.517162
vt 0.373760 0.585005
vt 0.424792 0.608296
vt 0.424461 0.520175
vt 0.459771 0.522851
vt 0.459789 0.615143
vt 0.497047 0.524727
vt 0.497263 0.626869
vt 0.533600 0.523019
vt 0.537173 0.631604
vt 0.057755 0.523554
vt 0.061224 0.527668
vt 0.056615 0.541818
vt 0.052499 0.537704
vt 0.038832 0.516560
vt 0.043836 0.527186
vt 0.040036 0.538270
vt 0.033958 0.532154
vt 0.034442 0.554880
vt 0.063512 0.511986
vt 0.065935 0.517048
vt 0.039951 0.567268
vt 0.047888 0.547992
vt 0.051772 0.553841
vt 0.042733 0.573836
vt 0.052584 0.515105
vt 0.533595 0.513077
vt 0.564202 0.512394
vt 0.057980 0.503113
vt 0.324492 0.463796
vt 0.283356 0.466570
vt 0.254783 0.475339
vt 0.221673 0.477280
vt 0.190295 0.485483
vt 0.172405 0.483926
vt 0.154127 0.487766
vt 0.132356 0.491247
vt 0.110320 0.478809
vt 0.097028 0.488730
vt 0.087898 0.490883
vt 0.075130 0.495098
vt 0.919438 0.445688
vt 0.957036 0.443599
vt 0.883668 0.465714
vt 0.841718 0.482494
vt 0.809355 0.486073
vt 0.708953 0.493576
vt 0.741445 0.489075
vt 0.770614 0.488149
vt 0.675727 0.498268
vt 0.638314 0.509772
vt 0.594821 0.512018
vt 0.372369 0.509027
vt 0.424435 0.510334
vt 0.459744 0.512758
vt 0.497098 0.515034
vt 0.374584 0.626514
vt 0.425718 0.658010
vt 0.498451 0.682258
vt 0.539953 0.689600
vt 0.065070 0.536615
vt 0.062560 0.550841
vt 0.126524 0.468461
vt 0.153194 0.467356
vt 0.171023 0.460294
vt 0.188576 0.454190
vt 0.220451 0.443068
vt 0.252231 0.440307
vt 0.282608 0.420744
vt 0.059190 0.563417
vt 0.048569 0.580945
vt 0.067944 0.526586
vt 0.569603 0.682165
vt 0.533432 0.442491
vt 0.563745 0.440086
vt 0.916788 0.403346
vt 0.957730 0.409500
vt 0.879563 0.415244
vt 0.830936 0.422744
vt 0.797372 0.420470
vt 0.705657 0.427524
vt 0.736032 0.424222
vt 0.762350 0.425897
vt 0.673272 0.425979
vt 0.636694 0.436381
vt 0.593947 0.440173
vt 0.373100 0.451270
vt 0.424675 0.440459
vt 0.459777 0.441099
vt 0.497585 0.446217
vt 0.460769 0.666546
vt 0.595837 0.690195
vt 0.639487 0.718845
vt 0.677316 0.701943
vt 0.711284 0.702277
vt 0.782060 0.704131
vt 0.826160 0.698670
vt 0.747083 0.700456
vt 0.861744 0.661846
vt 0.893614 0.615457
vt 0.928786 0.557685
vt 0.958195 0.521008
vt 0.088399 0.521782
vt 0.077252 0.521862
vt 0.097121 0.526472
vt 0.156859 0.526459
vt 0.176437 0.529477
vt 0.195905 0.531061
vt 0.222422 0.530772
vt 0.257778 0.544250
vt 0.284712 0.553468
vt 0.278687 0.397935
vt 0.243947 0.427972
vt 0.215405 0.433750
vt 0.184328 0.449001
vt 0.166454 0.449518
vt 0.149443 0.456490
vt 0.936930 0.586561
vt 0.957297 0.539036
vt 0.902610 0.632659
vt 0.869999 0.691959
vt 0.833423 0.747467
vt 0.712484 0.745499
vt 0.750041 0.744192
vt 0.786878 0.749310
vt 0.677366 0.743301
vt 0.638895 0.761944
vt 0.595122 0.741408
vt 0.570388 0.729789
vt 0.372480 0.652849
vt 0.423764 0.696416
vt 0.458894 0.707435
vt 0.496884 0.729011
vt 0.540745 0.740188
vt 0.071260 0.513006
vt 0.071983 0.523142
vt 0.065530 0.498051
vt 0.069676 0.507175
s 1
usemtl Leaves_07
f 194/1/1 7/2/2 4/3/3 192/4/4
f 196/5/5 12/6/6 6/7/7 193/8/8
f 195/9/9 10/10/10 7/2/2 194/1/1
f 193/8/8 6/7/7 10/10/10 195/9/9
f 185/11/11 2/12/12 12/6/6 196/5/5
f 220/13/13 1/14/14 13/15/15 219/16/16
f 219/16/16 13/15/15 15/17/17 218/18/18
f 218/18/18 15/17/17 17/19/19 217/20/20
f 217/20/20 17/19/19 19/21/21 216/22/22
f 216/22/22 19/21/21 21/23/23 215/24/24
f 215/24/24 21/23/23 23/25/25 214/26/26
f 214/26/26 23/25/25 25/27/27
f 180/28/28 25/27/27 181/29/29
f 208/30/30 97/31/31 35/32/32 197/33/33
f 197/33/33 35/32/32 37/34/34 198/35/35
f 198/35/35 37/34/34 39/36/36 199/37/37
f 199/37/37 39/36/36 41/38/38 200/39/39
f 202/40/40 45/41/41 43/42/42 201/43/43
f 203/44/44 47/45/45 45/41/41 202/40/40
f 200/39/39 41/38/38 47/45/45 203/44/44
f 201/43/43 43/42/42 49/46/46 204/47/47
f 204/47/47 49/46/46 51/48/48 205/49/49
f 205/49/49 51/48/48 53/50/50 206/51/51
f 206/51/51 53/50/50 55/52/52 207/53/53
f 171/54/54 82/55/55 83/56/56 172/57/57
f 170/58/58 81/59/59 82/55/55 171/54/54
f 169/60/60 80/61/61 81/59/59 170/58/58
f 166/62/62 77/63/63 80/61/61 169/60/60
f 165/64/64 76/65/65 79/66/66 168/67/67
f 168/67/67 79/66/66 78/68/68 167/69/69
f 167/69/69 78/68/68 77/63/63 166/62/62
f 27/70/70 75/71/71 76/65/65 165/64/64
f 29/72/72 74/73/73 75/71/71 27/70/70
f 31/74/74 73/75/75 74/73/73 29/72/72
f 184/76/76 98/77/77 73/75/75 31/74/74
f 109/78/78 71/79/79 72/80/80 110/81/81
f 108/82/82 70/83/83 71/79/79 109/78/78
f 107/84/84 69/85/85 70/83/83 108/82/82
f 106/86/86 68/87/87 69/85/85 107/84/84
f 105/88/88 67/89/89 68/87/87 106/86/86
f 104/90/90 66/91/91 67/89/89 105/88/88
f 103/92/92 65/93/93 66/91/91 104/90/90
f 102/94/94 64/95/95 65/93/93 103/92/92
f 101/96/96 63/97/97 64/95/95 102/94/94
f 100/98/98 62/99/99 63/97/97 101/96/96
f 99/100/100 56/101/101 62/99/99 100/98/98
f 173/102/102 56/101/101 61/103/103 33/104/104
f 145/105/105 58/106/106 60/107/107 95/108/108
f 95/108/108 60/107/107 59/109/109 144/110/110
f 33/104/104 61/103/103 58/106/106 145/105/105
f 144/110/110 59/109/109 57/111/111 146/112/112
f 128/113/113 92/114/114 86/115/115 129/116/116
f 85/117/117 94/118/118 147/119/119 87/120/120
f 87/120/120 147/119/119 90/121/121
f 234/122/122 233/123/123 92/114/114 128/113/113
f 127/124/124 130/125/125 88/126/126 91/127/127
f 130/125/125 129/116/116 86/115/115 88/126/126
f 94/118/118 85/117/117 93/128/128
f 146/112/112 57/111/111 98/77/77 184/76/76
f 192/4/4 4/3/3 97/31/31 208/30/30
f 57/111/111 111/129/129 131/130/130 98/77/77
f 147/119/119 94/118/118 129/116/116 130/125/125
f 90/121/121 147/119/119 130/125/125 127/124/124
f 235/131/131 234/122/122 128/113/113 93/128/128
f 93/128/128 128/113/113 129/116/116 94/118/118
f 132/132/132 99/100/100 100/98/98 133/133/133
f 133/133/133 100/98/98 101/96/96 134/134/134
f 134/134/134 101/96/96 102/94/94 135/135/135
f 135/135/135 102/94/94 103/92/92 136/136/136
f 136/136/136 103/92/92 104/90/90 137/137/137
f 137/137/137 104/90/90 105/88/88 138/138/138
f 138/138/138 105/88/88 106/86/86 139/139/139
f 139/139/139 106/86/86 107/84/84 140/140/140
f 140/140/140 107/84/84 108/82/82 141/141/141
f 141/141/141 108/82/82 109/78/78 142/142/142
f 142/142/142 109/78/78 110/81/81 143/143/143
f 82/55/55 125/144/144 126/145/145 83/56/56
f 81/59/59 124/146/146 125/144/144 82/55/55
f 80/61/61 123/147/147 124/146/146 81/59/59
f 77/63/63 120/148/148 123/147/147 80/61/61
f 76/65/65 119/149/149 122/150/150 79/66/66
f 79/66/66 122/150/150 121/151/151 78/68/68
f 78/68/68 121/151/151 120/148/148 77/63/63
f 75/71/71 118/152/152 119/149/149 76/65/65
f 74/73/73 117/153/153 118/152/152 75/71/71
f 73/75/75 116/154/154 117/153/153 74/73/73
f 98/77/77 131/130/130 116/154/154 73/75/75
f 56/101/101 99/100/100 115/155/155 61/103/103
f 58/106/106 112/156/156 114/157/157 60/107/107
f 60/107/107 114/157/157 113/158/158 59/109/109
f 61/103/103 115/155/155 112/156/156 58/106/106
f 59/109/109 113/158/158 111/129/129 57/111/111
f 213/159/159 33/104/104 145/105/105 210/160/160
f 211/161/161 144/110/110 146/112/112 209/162/162
f 92/114/114 183/163/163 84/164/164 86/115/115
f 26/165/165 139/139/139 140/140/140
f 191/166/166 138/138/138 139/139/139 26/165/165
f 190/167/167 137/137/137 138/138/138 191/166/166
f 189/168/168 136/136/136 137/137/137 190/167/167
f 188/169/169 135/135/135 136/136/136 189/168/168
f 187/170/170 134/134/134 135/135/135 188/169/169
f 186/171/171 133/133/133 134/134/134 187/170/170
f 185/11/11 132/132/132 133/133/133 186/171/171
f 86/115/115 84/164/164 182/172/172 88/126/126
f 88/126/126 182/172/172 89/173/173 91/127/127
f 233/123/123 236/174/174 183/163/163 92/114/114
f 209/162/162 146/112/112 184/76/76 232/175/175
f 111/129/129 148/176/176 164/177/177 131/130/130
f 125/144/144 162/178/178 163/179/179 126/145/145
f 124/146/146 161/180/180 162/178/178 125/144/144
f 123/147/147 160/181/181 161/180/180 124/146/146
f 120/148/148 157/182/182 160/181/181 123/147/147
f 119/149/149 156/183/183 159/184/184 122/150/150
f 122/150/150 159/184/184 158/185/185 121/151/151
f 121/151/151 158/185/185 157/182/182 120/148/148
f 118/152/152 155/186/186 156/183/183 119/149/149
f 117/153/153 154/187/187 155/186/186 118/152/152
f 116/154/154 153/188/188 154/187/187 117/153/153
f 131/130/130 164/177/177 153/188/188 116/154/154
f 99/100/100 132/132/132 152/189/189 115/155/155
f 112/156/156 149/190/190 151/191/191 114/157/157
f 114/157/157 151/191/191 150/192/192 113/158/158
f 115/155/155 152/189/189 149/190/190 112/156/156
f 113/158/158 150/192/192 148/176/176 111/129/129
f 212/193/193 95/108/108 144/110/110 211/161/161
f 210/160/160 145/105/105 95/108/108 212/193/193
f 220/13/13 173/102/102 33/104/104 213/159/159
f 232/175/175 184/76/76 31/74/74 221/194/194
f 221/194/194 31/74/74 29/72/72 222/195/195
f 222/195/195 29/72/72 27/70/70 223/196/196
f 223/196/196 27/70/70 165/64/64 224/197/197
f 226/198/198 167/69/69 166/62/62 225/199/199
f 227/200/200 168/67/67 167/69/69 226/198/198
f 224/197/197 165/64/64 168/67/67 227/200/200
f 225/199/199 166/62/62 169/60/60 228/201/201
f 228/201/201 169/60/60 170/58/58 229/202/202
f 229/202/202 170/58/58 171/54/54 230/203/203
f 230/203/203 171/54/54 172/57/57 231/204/204
f 71/79/79 30/205/205 32/206/206 72/80/80
f 70/83/83 28/207/207 30/205/205 71/79/79
f 69/85/85 181/29/29 28/207/207 70/83/83
f 68/87/87 180/28/28 181/29/29 69/85/85
f 67/89/89 179/208/208 180/28/28 68/87/87
f 66/91/91 178/209/209 179/208/208 67/89/89
f 65/93/93 177/210/210 178/209/209 66/91/91
f 64/95/95 176/211/211 177/210/210 65/93/93
f 63/97/97 175/212/212 176/211/211 64/95/95
f 62/99/99 174/213/213 175/212/212 63/97/97
f 56/101/101 173/102/102 174/213/213 62/99/99
f 2/12/12 185/11/11 186/171/171 14/214/214
f 14/214/214 186/171/171 187/170/170 16/215/215
f 16/215/215 187/170/170 188/169/169 18/216/216
f 18/216/216 188/169/169 189/168/168 20/217/217
f 20/217/217 189/168/168 190/167/167 22/218/218
f 22/218/218 190/167/167 191/166/166 24/219/219
f 24/219/219 191/166/166 26/165/165
f 148/176/176 192/4/4 208/30/30 164/177/177
f 162/178/178 206/51/51 207/53/53 163/179/179
f 161/180/180 205/49/49 206/51/51 162/178/178
f 160/181/181 204/47/47 205/49/49 161/180/180
f 157/182/182 201/43/43 204/47/47 160/181/181
f 156/183/183 200/39/39 203/44/44 159/184/184
f 159/184/184 203/44/44 202/40/40 158/185/185
f 158/185/185 202/40/40 201/43/43 157/182/182
f 155/186/186 199/37/37 200/39/39 156/183/183
f 154/187/187 198/35/35 199/37/37 155/186/186
f 153/188/188 197/33/33 198/35/35 154/187/187
f 164/177/177 208/30/30 197/33/33 153/188/188
f 132/132/132 185/11/11 196/5/5 152/189/189
f 149/190/190 193/8/8 195/9/9 151/191/191
f 151/191/191 195/9/9 194/1/1 150/192/192
f 152/189/189 196/5/5 193/8/8 149/190/190
f 150/192/192 194/1/1 192/4/4 148/176/176
f 52/220/220 230/203/203 231/204/204 54/221/221
f 50/222/222 229/202/202 230/203/203 52/220/220
f 48/223/223 228/201/201 229/202/202 50/222/222
f 42/224/224 225/199/199 228/201/201 48/223/223
f 40/225/225 224/197/197 227/200/200 46/226/226
f 46/226/226 227/200/200 226/198/198 44/227/227
f 44/227/227 226/198/198 225/199/199 42/224/224
f 38/228/228 223/196/196 224/197/197 40/225/225
f 36/229/229 222/195/195 223/196/196 38/228/228
f 34/230/230 221/194/194 222/195/195 36/229/229
f 96/231/231 232/175/175 221/194/194 34/230/230
f 1/14/14 220/13/13 213/159/159 11/232/232
f 5/233/233 210/160/160 212/193/193 9/234/234
f 9/234/234 212/193/193 211/161/161 8/235/235
f 3/236/236 209/162/162 232/175/175 96/231/231
f 8/235/235 211/161/161 209/162/162 3/236/236
f 11/232/232 213/159/159 210/160/160 5/233/233
f 179/208/208 214/26/26 25/27/27 180/28/28
f 178/209/209 215/24/24 214/26/26 179/208/208
f 177/210/210 216/22/22 215/24/24 178/209/209
f 176/211/211 217/20/20 216/22/22 177/210/210
f 175/212/212 218/18/18 217/20/20 176/211/211
f 174/213/213 219/16/16 218/18/18 175/212/212
f 173/102/102 220/13/13 219/16/16 174/213/213
f 237/237/237 240/238/238 236/174/174 233/123/123
f 238/239/239 239/240/240 234/122/122 235/131/131
f 239/240/240 237/237/237 233/123/123 234/122/122
f 110/81/81 72/80/80 237/237/237 239/240/240
f 143/143/143 110/81/81 239/240/240 238/239/239
f 72/80/80 32/206/206 240/238/238 237/237/237
