# Blender 4.4.3
# www.blender.org
mtllib ../mtl_files/3D_Leave_04.mtl
o Leaves_04
v -0.021932 0.004790 0.029660
v 0.011098 0.004697 0.028700
v -0.022529 0.005322 -0.008227
v 0.014096 0.005136 -0.007512
v -0.026606 0.006305 0.010885
v 0.014951 0.006073 0.011494
v -0.014863 0.003914 0.039881
v 0.009848 0.002925 0.038419
v -0.023790 0.005623 0.020115
v 0.014126 0.005401 0.021074
v 0.015404 0.006118 0.002610
v -0.025118 0.006289 0.001923
v -0.018211 0.004361 -0.015653
v 0.012771 0.003637 -0.015048
v -0.014139 0.003217 -0.024520
v 0.011766 0.001730 -0.022411
v -0.011271 0.002433 -0.030327
v 0.011413 0.000890 -0.026118
v -0.007342 0.001877 -0.035233
v 0.011731 -0.000706 -0.031694
v -0.004292 -0.001327 -0.038981
v 0.008955 -0.003453 -0.038155
v -0.001997 -0.002706 -0.042491
v 0.008046 -0.004519 -0.041835
v -0.000212 -0.004218 -0.045852
v 0.006988 -0.005154 -0.044725
v 0.000231 -0.005005 -0.048169
v 0.007431 -0.005585 -0.047061
v -0.008659 0.001735 0.045735
v 0.007001 0.000878 0.043972
v 0.000096 -0.001060 0.051358
v 0.002351 -0.001513 0.051555
v 0.002338 -0.003343 0.057449
v -0.000660 -0.003399 0.060456
v 0.001265 -0.004908 0.065729
v 0.000761 -0.005359 0.069250
v 0.005010 -0.000700 0.048062
v -0.003367 -0.000968 0.048618
v -0.001271 0.001088 0.029294
v -0.000849 0.000987 -0.007515
v -0.001742 0.001663 0.011257
v -0.000378 0.001542 0.038892
v -0.001681 0.001130 0.020864
v -0.001530 0.001677 0.002292
v 0.000119 0.000292 -0.015390
v 0.001012 -0.000466 -0.023237
v 0.001223 -0.000695 -0.027482
v 0.001752 -0.001679 -0.032947
v 0.002625 -0.003059 -0.038301
v 0.002846 -0.004115 -0.041816
v 0.003006 -0.005085 -0.045186
v 0.003551 -0.005582 -0.047535
v 0.000182 0.000423 0.044747
v -0.000250 -0.002878 0.056465
v -0.001491 -0.004176 0.064753
v -0.002133 -0.004656 0.068233
v 0.000255 -0.000485 0.048323
v -0.000212 0.001122 0.029263
v 0.000775 0.001271 0.038824
v 0.001319 0.000352 0.044619
v 0.001911 -0.004202 0.061399
v 0.001842 -0.000480 0.048218
v 0.000041 0.000987 -0.007498
v -0.000618 0.001695 0.011274
v -0.000537 0.001169 0.020893
v -0.000896 0.001694 0.002303
v 0.000764 0.000182 -0.015378
v 0.001888 -0.000680 -0.023166
v 0.001856 -0.000867 -0.027365
v 0.002451 -0.001879 -0.032816
v 0.003315 -0.003217 -0.038241
v 0.003435 -0.004203 -0.041770
v 0.003520 -0.005136 -0.045103
v 0.003860 -0.005594 -0.047487
v 0.005443 0.003119 0.028982
v 0.005311 0.001831 0.038621
v 0.004160 0.000353 0.044296
v 0.007068 0.003336 -0.007505
v 0.007167 0.004172 0.011384
v 0.006795 0.003560 0.020983
v 0.007254 0.004203 0.002456
v 0.006767 0.001961 -0.015213
v 0.006827 0.000238 -0.022788
v 0.006634 -0.000608 -0.026741
v 0.007091 -0.002068 -0.032251
v 0.006135 -0.003747 -0.038171
v 0.005740 -0.004533 -0.041776
v 0.005254 -0.005189 -0.044903
v 0.005646 -0.005582 -0.047274
v -0.011689 0.003371 -0.007871
v -0.014174 0.004461 0.011071
v -0.012735 0.005041 0.020489
v -0.013324 0.004401 0.002108
v -0.009046 0.003155 -0.015522
v -0.006564 0.000987 -0.023879
v -0.005024 -0.000194 -0.028905
v -0.002795 -0.000723 -0.034086
v -0.000834 -0.002229 -0.038673
v 0.000424 -0.003592 -0.042176
v 0.001397 -0.004805 -0.045517
v 0.001891 -0.005423 -0.047853
v -0.011602 0.004376 0.029477
v -0.007621 0.002541 0.039386
v -0.004238 0.000017 0.045241
vn -0.2676 0.9627 -0.0391
vn -0.2347 0.9714 -0.0357
vn -0.2440 0.9638 -0.1077
vn -0.2726 0.9554 -0.1133
vn -0.2795 0.9598 0.0271
vn -0.2466 0.9687 0.0288
vn -0.2367 0.9713 0.0224
vn -0.2695 0.9627 0.0258
vn 0.1747 0.9836 0.0455
vn 0.0667 0.9950 0.0744
vn 0.1491 0.9836 0.1011
vn 0.1931 0.9738 0.1203
vn -0.2679 0.9619 0.0539
vn -0.2514 0.9664 0.0539
vn -0.2569 0.9498 -0.1784
vn -0.2613 0.9499 -0.1713
vn -0.2659 0.9426 -0.2022
vn -0.2209 0.9591 -0.1768
vn -0.2612 0.9385 -0.2257
vn -0.1505 0.9678 -0.2016
vn -0.2259 0.9342 -0.2760
vn -0.0867 0.9615 -0.2606
vn -0.1370 0.9549 -0.2634
vn 0.0119 0.9668 -0.2554
vn -0.0378 0.9737 -0.2246
vn 0.0510 0.9711 -0.2332
vn 0.0014 0.9815 -0.1915
vn 0.0394 0.9789 -0.2003
vn 0.0100 0.9853 -0.1707
vn 0.0205 0.9851 -0.1710
vn 0.2871 0.9435 0.1653
vn 0.1593 0.9604 0.2286
vn -0.0078 0.9724 0.2333
vn 0.0215 0.9729 0.2304
vn 0.0530 0.9658 0.2539
vn 0.0498 0.9770 0.2074
vn 0.0512 0.9709 0.2341
vn 0.0716 0.9663 0.2472
vn 0.1959 0.9645 0.1770
vn 0.1978 0.9632 0.1822
vn 0.1897 0.9687 0.1599
vn 0.1894 0.9625 0.1941
vn 0.1837 0.9641 0.1919
vn 0.1429 0.9609 0.2372
vn 0.1291 0.9558 0.2642
vn 0.0991 0.9540 0.2829
vn -0.0100 0.9951 0.0982
vn 0.1434 0.9845 0.1009
vn 0.2718 0.9359 -0.2239
vn 0.1660 0.9598 -0.2262
vn 0.1347 0.9734 -0.1852
vn 0.2446 0.9481 -0.2030
vn 0.2905 0.9259 -0.2415
vn 0.2086 0.9412 -0.2658
vn 0.3003 0.9268 -0.2256
vn 0.2435 0.9416 -0.2324
vn 0.3141 0.9430 -0.1099
vn 0.2402 0.9576 -0.1590
vn 0.2707 0.9625 -0.0196
vn 0.2138 0.9714 -0.1031
vn 0.2475 0.9644 -0.0930
vn 0.2187 0.9718 -0.0885
vn 0.2198 0.9739 -0.0571
vn 0.1959 0.9779 -0.0727
vn 0.1966 0.9800 -0.0313
vn 0.1365 0.9892 -0.0528
vn 0.1835 0.9830 -0.0038
vn 0.1121 0.9936 0.0105
vn 0.1041 0.9941 -0.0300
vn 0.1906 0.9814 -0.0238
vn 0.1583 0.9874 -0.0033
vn 0.1364 0.9906 0.0128
vn 0.1844 0.9828 0.0120
vn -0.1199 0.9927 0.0094
vn -0.1908 0.9685 0.1601
vn -0.0753 0.9677 0.2408
vn 0.0194 0.9638 0.2659
vn 0.0990 0.9715 -0.2155
vn 0.0673 0.9823 -0.1749
vn 0.1560 0.9545 -0.2541
vn 0.1847 0.9527 -0.2413
vn 0.1766 0.9630 -0.2037
vn 0.1236 0.9836 -0.1316
vn 0.0241 0.9938 -0.1086
vn -0.0563 0.9910 -0.1215
vn -0.1359 0.9859 -0.0976
vn -0.1694 0.9851 0.0285
vn -0.1565 0.9869 -0.0388
vn -0.1731 0.9844 0.0306
vn -0.1769 0.9517 0.2511
vn -0.2266 0.9591 0.1695
vn 0.1592 0.9871 -0.0183
vn 0.1638 0.9856 -0.0410
vn 0.0795 0.9966 0.0196
vn 0.1292 0.9916 -0.0002
vn 0.1735 0.9839 -0.0420
vn 0.2551 0.9635 -0.0810
vn 0.3627 0.9312 0.0353
vn 0.4166 0.9088 0.0232
vn 0.3875 0.8929 -0.2290
vn 0.3263 0.9212 -0.2120
vn 0.3485 0.9122 -0.2154
vn 0.3256 0.9213 -0.2126
vt 0.634574 0.567336
vt 0.747631 0.566105
vt 0.729480 0.647361
vt 0.631999 0.647306
vt 0.628201 0.418597
vt 0.729904 0.417870
vt 0.741343 0.494780
vt 0.633360 0.495663
vt 0.373020 0.350406
vt 0.229721 0.348937
vt 0.327779 0.266880
vt 0.428243 0.270850
vt 0.609451 0.354383
vt 0.687893 0.356644
vt 0.711100 0.707862
vt 0.627823 0.709186
vt 0.697155 0.766973
vt 0.628645 0.770006
vt 0.692264 0.796741
vt 0.625979 0.801743
vt 0.696676 0.841503
vt 0.632313 0.845977
vt 0.658163 0.893370
vt 0.619049 0.893501
vt 0.645556 0.922922
vt 0.613577 0.922446
vt 0.630884 0.946121
vt 0.606829 0.947546
vt 0.637030 0.964874
vt 0.612264 0.966587
vt 0.413839 0.219882
vt 0.475157 0.223847
vt 0.537480 0.199101
vt 0.487245 0.196735
vt 0.535287 0.174736
vt 0.552245 0.228839
vt 0.536476 0.227812
vt 0.559503 0.199947
vt 0.551502 0.059368
vt 0.513264 0.067198
vt 0.504364 0.039262
vt 0.544505 0.031098
vt 0.560457 0.094124
vt 0.524789 0.101699
vt 0.566378 0.125838
vt 0.530489 0.133740
vt 0.566561 0.173154
vt 0.544699 0.275368
vt 0.528706 0.274820
vt 0.553329 0.952480
vt 0.575646 0.949820
vt 0.583212 0.968680
vt 0.560185 0.971234
vt 0.539834 0.925654
vt 0.573423 0.922769
vt 0.522386 0.897534
vt 0.570361 0.894543
vt 0.495177 0.860704
vt 0.558250 0.851564
vt 0.464256 0.819111
vt 0.550910 0.807689
vt 0.442901 0.778761
vt 0.547984 0.773611
vt 0.408470 0.711667
vt 0.535606 0.710612
vt 0.371811 0.650248
vt 0.522177 0.647390
vt 0.337337 0.498172
vt 0.509792 0.496678
vt 0.512727 0.568654
vt 0.349129 0.570134
vt 0.516318 0.351874
vt 0.510628 0.419556
vt 0.357291 0.422562
vt 0.531010 0.352121
vt 0.607626 0.276993
vt 0.591657 0.231438
vt 0.603445 0.201197
vt 0.582773 0.949153
vt 0.587498 0.968295
vt 0.581599 0.922400
vt 0.579936 0.894064
vt 0.567949 0.850514
vt 0.559694 0.806746
vt 0.560135 0.773038
vt 0.544547 0.710511
vt 0.534518 0.647250
vt 0.525377 0.496546
vt 0.521517 0.568567
vt 0.526498 0.419323
vt 0.631068 0.234036
vt 0.670553 0.278618
vt 0.185532 0.571615
vt 0.221446 0.653105
vt 0.203953 0.425568
vt 0.164882 0.499666
vt 0.281334 0.712721
vt 0.337818 0.783910
vt 0.377602 0.830532
vt 0.432104 0.869916
vt 0.474410 0.900005
vt 0.506244 0.928181
vt 0.531012 0.955170
vt 0.537158 0.973768
s 1
usemtl Leaves_04
f 81/1/1 11/2/2 4/3/3 78/4/4
f 80/5/5 10/6/6 6/7/7 79/8/8
f 102/9/9 1/10/10 7/11/11 103/12/12
f 75/13/13 2/14/14 10/6/6 80/5/5
f 79/8/8 6/7/7 11/2/2 81/1/1
f 78/4/4 4/3/3 14/15/15 82/16/16
f 82/16/16 14/15/15 16/17/17 83/18/18
f 83/18/18 16/17/17 18/19/19 84/20/20
f 84/20/20 18/19/19 20/21/21 85/22/22
f 85/22/22 20/21/21 22/23/23 86/24/24
f 86/24/24 22/23/23 24/25/25 87/26/26
f 87/26/26 24/25/25 26/27/27 88/28/28
f 88/28/28 26/27/27 28/29/29 89/30/30
f 103/12/12 7/11/11 29/31/31 104/32/32
f 57/33/33 38/34/34 31/35/35
f 104/32/32 29/31/31 38/34/34
f 60/36/36 53/37/37 57/33/33 62/38/38
f 35/39/39 55/40/40 56/41/41 36/42/41
f 61/43/42 34/44/43 55/40/40 35/39/39
f 33/45/44 54/46/45 34/44/43 61/43/42
f 32/47/46 31/35/35 54/46/45 33/45/44
f 62/38/38 57/33/33 31/35/35 32/47/46
f 59/48/47 42/49/48 53/37/37 60/36/36
f 100/50/49 51/51/50 52/52/51 101/53/52
f 99/54/53 50/55/54 51/51/50 100/50/49
f 98/56/55 49/57/56 50/55/54 99/54/53
f 97/58/57 48/59/58 49/57/56 98/56/55
f 96/60/59 47/61/60 48/59/58 97/58/57
f 95/62/61 46/63/62 47/61/60 96/60/59
f 94/64/63 45/65/64 46/63/62 95/62/61
f 90/66/65 40/67/66 45/65/64 94/64/63
f 91/68/67 41/69/68 44/70/69 93/71/70
f 102/9/9 39/72/71 43/73/72 92/74/73
f 58/75/74 39/72/71 42/49/48 59/48/47
f 92/74/73 43/73/72 41/69/68 91/68/67
f 93/71/70 44/70/69 40/67/66 90/66/65
f 75/13/13 58/75/74 59/48/47 76/76/75
f 76/76/75 59/48/47 60/36/36 77/77/76
f 37/78/77 62/38/38 32/47/46
f 77/77/76 60/36/36 62/38/38 37/78/77
f 51/51/50 73/79/78 74/80/79 52/52/51
f 50/55/54 72/81/80 73/79/78 51/51/50
f 49/57/56 71/82/81 72/81/80 50/55/54
f 48/59/58 70/83/82 71/82/81 49/57/56
f 47/61/60 69/84/83 70/83/82 48/59/58
f 46/63/62 68/85/84 69/84/83 47/61/60
f 45/65/64 67/86/85 68/85/84 46/63/62
f 40/67/66 63/87/86 67/86/85 45/65/64
f 41/69/68 64/88/87 66/89/88 44/70/69
f 39/72/71 58/75/74 65/90/89 43/73/72
f 43/73/72 65/90/89 64/88/87 41/69/68
f 44/70/69 66/89/88 63/87/86 40/67/66
f 30/91/90 77/77/76 37/78/77
f 8/92/91 76/76/75 77/77/76 30/91/90
f 2/14/14 75/13/13 76/76/75 8/92/91
f 73/79/78 88/28/28 89/30/30 74/80/79
f 72/81/80 87/26/26 88/28/28 73/79/78
f 71/82/81 86/24/24 87/26/26 72/81/80
f 70/83/82 85/22/22 86/24/24 71/82/81
f 69/84/83 84/20/20 85/22/22 70/83/82
f 68/85/84 83/18/18 84/20/20 69/84/83
f 67/86/85 82/16/16 83/18/18 68/85/84
f 63/87/86 78/4/4 82/16/16 67/86/85
f 64/88/87 79/8/8 81/1/1 66/89/88
f 58/75/74 75/13/13 80/5/5 65/90/89
f 65/90/89 80/5/5 79/8/8 64/88/87
f 66/89/88 81/1/1 78/4/4 63/87/86
f 12/93/92 93/71/70 90/66/65 3/94/93
f 9/95/94 92/74/73 91/68/67 5/96/95
f 1/10/10 102/9/9 92/74/73 9/95/94
f 5/96/95 91/68/67 93/71/70 12/93/92
f 3/94/93 90/66/65 94/64/63 13/97/96
f 13/97/96 94/64/63 95/62/61 15/98/97
f 15/98/97 95/62/61 96/60/59 17/99/98
f 17/99/98 96/60/59 97/58/57 19/100/99
f 19/100/99 97/58/57 98/56/55 21/101/100
f 21/101/100 98/56/55 99/54/53 23/102/101
f 23/102/101 99/54/53 100/50/49 25/103/102
f 25/103/102 100/50/49 101/53/52 27/104/103
f 53/37/37 104/32/32 38/34/34 57/33/33
f 42/49/48 103/12/12 104/32/32 53/37/37
f 39/72/71 102/9/9 103/12/12 42/49/48
