# Blender 4.4.3
# www.blender.org
mtllib fence.mtl
o Fence_Post.002_Cube.032
g fence
v 0.093598 3.107057 3.033443
v 0.093598 2.849832 3.033443
v 0.101498 3.151094 10.744479
v 0.101498 2.849834 10.744479
v -0.062698 3.107057 3.034831
v -0.062698 2.849832 3.034831
v -0.054797 3.151094 10.745867
v -0.054797 2.849834 10.745867
v -0.116003 2.849833 6.890858
v 0.040292 3.151093 6.889470
v -0.116003 3.151093 6.890857
v 0.040292 2.849833 6.889470
v -0.045582 3.151093 4.962456
v 0.110714 2.849833 4.961068
v -0.045582 2.849833 4.962456
v 0.110714 3.151093 4.961068
v -0.071913 2.849834 8.818243
v 0.084382 3.151094 8.816854
v -0.071913 3.151094 8.818243
v 0.084382 2.849834 8.816854
v 0.093598 3.000462 3.033443
v -0.054797 3.000464 10.745867
v 0.101498 3.000464 10.744479
v -0.062698 3.000462 3.034831
v 0.040292 3.000463 6.889470
v -0.116003 3.000463 6.890858
v 0.110714 3.000463 4.961068
v -0.045582 3.000463 4.962456
v -0.071913 3.000464 8.818243
v 0.084382 3.000464 8.816854
v -0.054140 3.151092 3.998643
v 0.102156 2.849832 3.997256
v -0.054140 2.849832 3.998643
v 0.102156 3.151092 3.997256
v 0.102156 3.000462 3.997256
v -0.054140 3.000462 3.998643
v -0.058419 3.151092 3.516737
v 0.097877 2.849832 3.515349
v -0.058419 3.000462 3.516737
v -0.058419 2.849832 3.516737
v 0.097877 3.151092 3.515349
v 0.097877 3.000462 3.515349
v -0.060559 3.129026 3.275784
v 0.095737 2.849832 3.274396
v -0.060559 3.000462 3.275784
v -0.060559 2.849832 3.275784
v 0.095737 3.129026 3.274396
v 0.095737 3.000462 3.274396
vn 0.0089 -0.0000 1.0000
vn -0.0089 -0.0000 -1.0000
vn -0.0000 1.0000 -0.0000
vn -1.0000 -0.0000 0.0089
vn -0.0000 -1.0000 -0.0000
vn 0.9999 -0.0000 -0.0159
vn 1.0000 -0.0000 -0.0089
vn 0.9993 -0.0000 0.0365
vn -0.9999 -0.0000 0.0159
vn -0.9997 -0.0000 0.0229
vn -0.9993 -0.0000 -0.0365
vn 0.9997 -0.0000 -0.0229
vn -0.0008 0.9959 -0.0910
vn -0.0008 0.9958 -0.0912
vn -0.0008 0.9959 -0.0908
vt 0.512605 0.480583
vt 0.511994 0.531501
vt 0.458880 0.530839
vt 0.459633 0.479851
vt 0.522009 0.502661
vt 0.521701 0.527595
vt 0.495823 0.527261
vt 0.496139 0.502335
vt 0.522318 0.477727
vt 0.496455 0.477410
vt 0.513215 0.429664
vt 0.460385 0.428862
vt 0.503115 0.413660
vt 0.515099 0.413900
vt 0.517912 0.265727
vt 0.505950 0.265470
vt 0.156319 0.499652
vt 0.155951 0.511417
vt 0.136816 0.511174
vt 0.137196 0.499426
vt 0.515779 0.410769
vt 0.503382 0.410520
vt 0.506315 0.257218
vt 0.518688 0.257484
vt 0.594959 0.505227
vt 0.594861 0.517165
vt 0.745256 0.519079
vt 0.745263 0.507011
vt 0.294350 0.501661
vt 0.294072 0.513337
vt 0.444466 0.515251
vt 0.444655 0.503444
vt 0.509960 0.717339
vt 0.497517 0.717126
vt 0.500450 0.563823
vt 0.512869 0.564054
vt 0.596142 0.504859
vt 0.596043 0.517013
vt 0.442967 0.515066
vt 0.443160 0.503048
vt 0.497445 0.710039
vt 0.509472 0.710246
vt 0.512285 0.562073
vt 0.500280 0.561850
vt 0.496027 0.784134
vt 0.508065 0.784333
vt 0.508505 0.793982
vt 0.496051 0.793777
vt 0.219198 0.500769
vt 0.218874 0.512380
vt 0.289892 0.513120
vt 0.290178 0.501237
vt 0.749123 0.506670
vt 0.749119 0.518959
vt 0.444843 0.491637
vt 0.595056 0.493290
vt 0.749128 0.494381
vt 0.596240 0.492705
vt 0.443352 0.491029
vt 0.290464 0.489354
vt 0.219522 0.489157
vt 0.294629 0.489984
vt 0.745270 0.494943
vt 0.156687 0.487887
vt 0.137576 0.487678
vt 0.213687 0.500331
vt 0.214020 0.488516
vt 0.181968 0.488744
vt 0.181622 0.500323
vt 0.181276 0.511902
vt 0.507778 0.832303
vt 0.495318 0.832103
vt 0.495318 0.821181
vt 0.507362 0.821376
vt 0.213354 0.512147
vt 0.494964 0.839705
vt 0.507010 0.839898
vt 0.507414 0.851463
vt 0.494951 0.851266
vt 0.162834 0.500100
vt 0.162476 0.511662
vt 0.163192 0.488538
vt 0.175442 0.499879
vt 0.175798 0.488097
vt 0.175085 0.511661
vt 0.144415 0.488331
vt 0.144046 0.499877
vt 0.143677 0.511423
vt 0.507050 0.870624
vt 0.494585 0.870428
vt 0.494609 0.858229
vt 0.506658 0.858419
s 1
usemtl Material.038
f 23/1/1 3/2/1 7/3/1 22/4/1
f 24/5/2 5/6/2 1/7/2 21/8/2
f 6/9/2 24/5/2 21/8/2 2/10/2
f 4/11/1 23/1/1 22/4/1 8/12/1
usemtl Material.039
f 18/13/3 19/14/3 7/15/3 3/16/3
f 45/17/4 43/18/4 5/19/4 24/20/4
f 17/21/5 20/22/5 4/23/5 8/24/5
f 30/25/6 18/26/6 3/27/7 23/28/7
f 27/29/8 16/30/8 10/31/8 25/32/8
f 15/33/5 14/34/5 12/35/5 9/36/5
f 29/37/9 19/38/9 11/39/10 26/40/10
f 16/41/3 13/42/3 11/43/3 10/44/3
f 34/45/3 31/46/3 13/42/3 16/41/3
f 33/47/5 32/48/5 14/34/5 15/33/5
f 35/49/7 34/50/7 16/30/7 27/29/7
f 26/40/11 11/39/11 13/51/11 28/52/11
f 22/53/4 7/54/4 19/38/9 29/37/9
f 25/32/12 10/31/12 18/26/6 30/25/6
f 9/36/5 12/35/5 20/22/5 17/21/5
f 10/44/3 11/43/3 19/14/3 18/13/3
f 12/55/12 25/32/12 30/25/6 20/56/6
f 8/57/4 22/53/4 29/37/9 17/58/9
f 9/59/11 26/40/11 28/52/11 15/60/11
f 32/61/7 35/49/7 27/29/7 14/62/7
f 17/58/9 29/37/9 26/40/10 9/59/10
f 14/62/8 27/29/8 25/32/8 12/55/8
f 20/56/6 30/25/6 23/28/7 4/63/7
f 46/64/4 45/17/4 24/20/4 6/65/4
f 15/60/4 28/52/4 36/66/4 33/67/4
f 38/68/7 42/69/7 35/49/7 32/61/7
f 42/69/7 41/70/7 34/50/7 35/49/7
f 40/71/5 38/72/5 32/48/5 33/47/5
f 41/73/3 37/74/3 31/46/3 34/45/3
f 28/52/4 13/51/4 31/75/4 36/66/4
f 47/76/13 43/77/13 37/74/14 41/73/14
f 46/78/5 44/79/5 38/72/5 40/71/5
f 48/80/7 47/81/7 41/70/7 42/69/7
f 44/82/7 48/80/7 42/69/7 38/68/7
f 33/67/4 36/66/4 39/83/4 40/84/4
f 36/66/4 31/75/4 37/85/4 39/83/4
f 2/86/7 21/87/7 48/80/7 44/82/7
f 21/87/7 1/88/7 47/81/7 48/80/7
f 6/89/5 2/90/5 44/79/5 46/78/5
f 1/91/15 5/92/15 43/77/13 47/76/13
f 40/84/4 39/83/4 45/17/4 46/64/4
f 39/83/4 37/85/4 43/18/4 45/17/4

v 0.093598 2.323615 -4.331062
v 0.093598 2.067829 -4.303894
v 0.101498 3.181839 3.332192
v 0.101498 2.882264 3.364011
v -0.062698 2.323762 -4.329682
v -0.062698 2.067976 -4.302514
v -0.054797 3.181986 3.333572
v -0.054797 2.882411 3.365391
v -0.116003 2.475247 -0.468056
v 0.040292 2.774676 -0.501255
v -0.116003 2.774822 -0.499875
v 0.040292 2.475100 -0.469436
v -0.045582 2.571146 -2.417490
v 0.110714 2.271424 -2.387051
v -0.045582 2.271570 -2.385671
v 0.110714 2.570999 -2.418870
v -0.071913 2.678816 1.448548
v 0.084382 2.978245 1.415349
v -0.071913 2.978391 1.416729
v 0.084382 2.678669 1.447168
v 0.093598 2.217617 -4.319803
v -0.054797 3.032198 3.349481
v 0.101498 3.032052 3.348101
v -0.062698 2.217763 -4.318423
v 0.040292 2.624888 -0.485345
v -0.116003 2.625035 -0.483965
v 0.110714 2.421211 -2.402961
v -0.045582 2.421358 -2.401581
v -0.071913 2.828604 1.432639
v 0.084382 2.828457 1.431259
v -0.054140 2.469348 -3.375911
v 0.102156 2.169626 -3.345473
v -0.054140 2.169773 -3.344093
v 0.102156 2.469202 -3.377291
v 0.102156 2.319414 -3.361382
v -0.054140 2.319561 -3.360002
v -0.058419 2.418449 -3.855122
v 0.097877 2.118728 -3.824683
v -0.058419 2.268662 -3.839213
v -0.058419 2.118874 -3.823303
v 0.097877 2.418303 -3.856502
v 0.097877 2.268515 -3.840593
v -0.060559 2.371057 -4.092397
v 0.095737 2.093278 -4.064288
v -0.060559 2.243212 -4.078818
v -0.060559 2.093425 -4.062908
v 0.095737 2.370911 -4.093777
v 0.095737 2.243066 -4.080198
vn 0.0089 0.1056 0.9944
vn -0.0089 -0.1056 -0.9944
vn -0.0000 0.9944 -0.1056
vn -1.0000 0.0009 0.0088
vn -0.0000 -0.9944 0.1056
vn 0.9999 -0.0017 -0.0158
vn 1.0000 -0.0009 -0.0088
vn 0.9993 0.0039 0.0363
vn -0.9999 0.0017 0.0158
vn -0.9997 0.0024 0.0227
vn -0.9993 -0.0039 -0.0363
vn 0.9997 -0.0024 -0.0227
vn -0.0008 0.9807 -0.1957
vn -0.0008 0.9806 -0.1959
vn -0.0008 0.9807 -0.1955
vt 0.512605 0.480583
vt 0.511994 0.531501
vt 0.458880 0.530839
vt 0.459633 0.479851
vt 0.522009 0.502661
vt 0.521701 0.527595
vt 0.495823 0.527261
vt 0.496139 0.502335
vt 0.522318 0.477727
vt 0.496455 0.477410
vt 0.513215 0.429664
vt 0.460385 0.428862
vt 0.503115 0.413660
vt 0.515099 0.413900
vt 0.517912 0.265727
vt 0.505950 0.265470
vt 0.156319 0.499652
vt 0.155951 0.511417
vt 0.136816 0.511174
vt 0.137196 0.499426
vt 0.515779 0.410769
vt 0.503382 0.410520
vt 0.506315 0.257218
vt 0.518688 0.257484
vt 0.594959 0.505227
vt 0.594861 0.517165
vt 0.745256 0.519079
vt 0.745263 0.507011
vt 0.294350 0.501661
vt 0.294072 0.513337
vt 0.444466 0.515251
vt 0.444655 0.503444
vt 0.509960 0.717339
vt 0.497517 0.717126
vt 0.500450 0.563823
vt 0.512869 0.564054
vt 0.596142 0.504859
vt 0.596043 0.517013
vt 0.442967 0.515066
vt 0.443160 0.503048
vt 0.497445 0.710039
vt 0.509472 0.710246
vt 0.512285 0.562073
vt 0.500280 0.561850
vt 0.496027 0.784134
vt 0.508065 0.784333
vt 0.508505 0.793982
vt 0.496051 0.793777
vt 0.219198 0.500769
vt 0.218874 0.512380
vt 0.289892 0.513120
vt 0.290178 0.501237
vt 0.749123 0.506670
vt 0.749119 0.518959
vt 0.444843 0.491637
vt 0.595056 0.493290
vt 0.749128 0.494381
vt 0.596240 0.492705
vt 0.443352 0.491029
vt 0.290464 0.489354
vt 0.219522 0.489157
vt 0.294629 0.489984
vt 0.745270 0.494943
vt 0.156687 0.487887
vt 0.137576 0.487678
vt 0.213687 0.500331
vt 0.214020 0.488516
vt 0.181968 0.488744
vt 0.181622 0.500323
vt 0.181276 0.511902
vt 0.507778 0.832303
vt 0.495318 0.832103
vt 0.495318 0.821181
vt 0.507362 0.821376
vt 0.213354 0.512147
vt 0.494964 0.839705
vt 0.507010 0.839898
vt 0.507414 0.851463
vt 0.494951 0.851266
vt 0.162834 0.500100
vt 0.162476 0.511662
vt 0.163192 0.488538
vt 0.175442 0.499879
vt 0.175798 0.488097
vt 0.175085 0.511661
vt 0.144415 0.488331
vt 0.144046 0.499877
vt 0.143677 0.511423
vt 0.507050 0.870624
vt 0.494585 0.870428
vt 0.494609 0.858229
vt 0.506658 0.858419
s 1
usemtl Material.038
f 71/93/16 51/94/16 55/95/16 70/96/16
f 72/97/17 53/98/17 49/99/17 69/100/17
f 54/101/17 72/97/17 69/100/17 50/102/17
f 52/103/16 71/93/16 70/96/16 56/104/16
usemtl Material.039
f 66/105/18 67/106/18 55/107/18 51/108/18
f 93/109/19 91/110/19 53/111/19 72/112/19
f 65/113/20 68/114/20 52/115/20 56/116/20
f 78/117/21 66/118/21 51/119/22 71/120/22
f 75/121/23 64/122/23 58/123/23 73/124/23
f 63/125/20 62/126/20 60/127/20 57/128/20
f 77/129/24 67/130/24 59/131/25 74/132/25
f 64/133/18 61/134/18 59/135/18 58/136/18
f 82/137/18 79/138/18 61/134/18 64/133/18
f 81/139/20 80/140/20 62/126/20 63/125/20
f 83/141/22 82/142/22 64/122/22 75/121/22
f 74/132/26 59/131/26 61/143/26 76/144/26
f 70/145/19 55/146/19 67/130/24 77/129/24
f 73/124/27 58/123/27 66/118/21 78/117/21
f 57/128/20 60/127/20 68/114/20 65/113/20
f 58/136/18 59/135/18 67/106/18 66/105/18
f 60/147/27 73/124/27 78/117/21 68/148/21
f 56/149/19 70/145/19 77/129/24 65/150/24
f 57/151/26 74/132/26 76/144/26 63/152/26
f 80/153/22 83/141/22 75/121/22 62/154/22
f 65/150/24 77/129/24 74/132/25 57/151/25
f 62/154/23 75/121/23 73/124/23 60/147/23
f 68/148/21 78/117/21 71/120/22 52/155/22
f 94/156/19 93/109/19 72/112/19 54/157/19
f 63/152/19 76/144/19 84/158/19 81/159/19
f 86/160/22 90/161/22 83/141/22 80/153/22
f 90/161/22 89/162/22 82/142/22 83/141/22
f 88/163/20 86/164/20 80/140/20 81/139/20
f 89/165/18 85/166/18 79/138/18 82/137/18
f 76/144/19 61/143/19 79/167/19 84/158/19
f 95/168/28 91/169/28 85/166/29 89/165/29
f 94/170/20 92/171/20 86/164/20 88/163/20
f 96/172/22 95/173/22 89/162/22 90/161/22
f 92/174/22 96/172/22 90/161/22 86/160/22
f 81/159/19 84/158/19 87/175/19 88/176/19
f 84/158/19 79/167/19 85/177/19 87/175/19
f 50/178/22 69/179/22 96/172/22 92/174/22
f 69/179/22 49/180/22 95/173/22 96/172/22
f 54/181/20 50/182/20 92/171/20 94/170/20
f 49/183/30 53/184/30 91/169/28 95/168/28
f 88/176/19 87/175/19 93/109/19 94/156/19
f 87/175/19 85/177/19 91/110/19 93/109/19

v 0.033035 1.563678 -4.340837
v 0.033035 1.262418 -4.340837
v 0.101498 1.563679 3.369662
v 0.101498 1.262419 3.369662
v -0.123261 1.563678 -4.339449
v -0.123261 1.262418 -4.339449
v -0.054797 1.563679 3.371049
v -0.054797 1.262419 3.371049
vn 0.0089 -0.0000 1.0000
vn -0.0089 -0.0000 -1.0000
vn -0.0000 1.0000 -0.0000
vn -1.0000 -0.0000 0.0089
vn -0.0000 -1.0000 -0.0000
vn 1.0000 -0.0000 -0.0089
vt 0.513215 0.429664
vt 0.511994 0.531501
vt 0.458880 0.530839
vt 0.460385 0.428862
vt 0.522318 0.477727
vt 0.521701 0.527595
vt 0.495823 0.527261
vt 0.496455 0.477410
vt 0.494609 0.858229
vt 0.506658 0.858419
vt 0.517912 0.265727
vt 0.505950 0.265470
vt 0.749128 0.494381
vt 0.749119 0.518959
vt 0.136816 0.511174
vt 0.137576 0.487678
vt 0.507050 0.870624
vt 0.494585 0.870428
vt 0.506315 0.257218
vt 0.518688 0.257484
vt 0.144415 0.488331
vt 0.143677 0.511423
vt 0.745256 0.519079
vt 0.745270 0.494943
s 1
usemtl Material.038
f 100/185/31 99/186/31 103/187/31 104/188/31
f 102/189/32 101/190/32 97/191/32 98/192/32
usemtl Material.039
f 97/193/33 101/194/33 103/195/33 99/196/33
f 104/197/34 103/198/34 101/199/34 102/200/34
f 102/201/35 98/202/35 100/203/35 104/204/35
f 98/205/36 97/206/36 99/207/36 100/208/36

v 0.093598 1.524099 3.033443
v 0.093598 1.266874 3.033443
v 0.101498 1.568137 10.744479
v 0.101498 1.266877 10.744479
v -0.062698 1.524099 3.034831
v -0.062698 1.266874 3.034831
v -0.054797 1.568137 10.745867
v -0.054797 1.266877 10.745867
v -0.116003 1.266876 6.890858
v 0.040292 1.520626 6.889470
v -0.116003 1.520626 6.890857
v 0.040292 1.266876 6.889470
v -0.045582 1.503875 4.962456
v 0.110714 1.266875 4.961068
v -0.045582 1.266875 4.962456
v 0.110714 1.503875 4.961068
v -0.071913 1.266876 8.818243
v 0.084382 1.568137 8.816854
v -0.071913 1.568137 8.818243
v 0.084382 1.266876 8.816854
v 0.093598 1.417505 3.033443
v -0.054797 1.417507 10.745867
v 0.101498 1.417507 10.744479
v -0.062698 1.417505 3.034831
v 0.040292 1.417506 6.889470
v -0.116003 1.417506 6.890858
v 0.110714 1.417505 4.961068
v -0.045582 1.417505 4.962456
v -0.071913 1.417507 8.818243
v 0.084382 1.417507 8.816854
v -0.054140 1.568135 3.998643
v 0.102156 1.266875 3.997256
v -0.054140 1.266875 3.998643
v 0.102156 1.568135 3.997256
v 0.102156 1.417505 3.997256
v -0.054140 1.417505 3.998643
v -0.058419 1.568135 3.516737
v 0.097877 1.266874 3.515349
v -0.058419 1.417505 3.516737
v -0.058419 1.266874 3.516737
v 0.097877 1.568135 3.515349
v 0.097877 1.417505 3.515349
v -0.060559 1.546069 3.275784
v 0.095737 1.266874 3.274396
v -0.060559 1.417505 3.275784
v -0.060559 1.266874 3.275784
v 0.095737 1.546069 3.274396
v 0.095737 1.417505 3.274396
vn 0.0089 -0.0000 1.0000
vn -0.0089 -0.0000 -1.0000
vn -0.0000 1.0000 -0.0000
vn -1.0000 -0.0000 0.0089
vn -0.0000 -1.0000 -0.0000
vn 0.9999 -0.0000 -0.0159
vn 0.9999 -0.0000 -0.0158
vn 1.0000 -0.0000 -0.0089
vn 0.9993 -0.0000 0.0365
vn -0.9999 -0.0000 0.0159
vn -0.9999 -0.0000 0.0158
vn -0.9997 -0.0000 0.0229
vn -0.0001 1.0000 -0.0087
vn 0.0006 0.9978 0.0665
vn -0.9993 -0.0000 -0.0365
vn 0.9997 -0.0000 -0.0229
vn -0.0002 0.9997 -0.0246
vn -0.0008 0.9959 -0.0910
vn -0.0008 0.9958 -0.0912
vn -0.0008 0.9959 -0.0908
vt 0.512605 0.480583
vt 0.511994 0.531501
vt 0.458880 0.530839
vt 0.459633 0.479851
vt 0.522009 0.502661
vt 0.521701 0.527595
vt 0.495823 0.527261
vt 0.496139 0.502335
vt 0.522318 0.477727
vt 0.496455 0.477410
vt 0.513215 0.429664
vt 0.460385 0.428862
vt 0.503115 0.413660
vt 0.515099 0.413900
vt 0.517912 0.265727
vt 0.505950 0.265470
vt 0.156319 0.499652
vt 0.155951 0.511417
vt 0.136816 0.511174
vt 0.137196 0.499426
vt 0.515779 0.410769
vt 0.503382 0.410520
vt 0.506315 0.257218
vt 0.518688 0.257484
vt 0.594959 0.505227
vt 0.594861 0.517165
vt 0.745256 0.519079
vt 0.745263 0.507011
vt 0.294350 0.501661
vt 0.294072 0.513337
vt 0.444466 0.515251
vt 0.444655 0.503444
vt 0.509960 0.717339
vt 0.497517 0.717126
vt 0.500450 0.563823
vt 0.512869 0.564054
vt 0.596142 0.504859
vt 0.596043 0.517013
vt 0.442967 0.515066
vt 0.443160 0.503048
vt 0.497445 0.710039
vt 0.509472 0.710246
vt 0.512285 0.562073
vt 0.500280 0.561850
vt 0.496027 0.784134
vt 0.508065 0.784333
vt 0.508505 0.793982
vt 0.496051 0.793777
vt 0.219198 0.500769
vt 0.218874 0.512380
vt 0.289892 0.513120
vt 0.290178 0.501237
vt 0.749123 0.506670
vt 0.749119 0.518959
vt 0.444843 0.491637
vt 0.595056 0.493290
vt 0.749128 0.494381
vt 0.596240 0.492705
vt 0.443352 0.491029
vt 0.290464 0.489354
vt 0.219522 0.489157
vt 0.294629 0.489984
vt 0.745270 0.494943
vt 0.156687 0.487887
vt 0.137576 0.487678
vt 0.213687 0.500331
vt 0.214020 0.488516
vt 0.181968 0.488744
vt 0.181622 0.500323
vt 0.181276 0.511902
vt 0.507778 0.832303
vt 0.495318 0.832103
vt 0.495318 0.821181
vt 0.507362 0.821376
vt 0.213354 0.512147
vt 0.494964 0.839705
vt 0.507010 0.839898
vt 0.507414 0.851463
vt 0.494951 0.851266
vt 0.162834 0.500100
vt 0.162476 0.511662
vt 0.163192 0.488538
vt 0.175442 0.499879
vt 0.175798 0.488097
vt 0.175085 0.511661
vt 0.144415 0.488331
vt 0.144046 0.499877
vt 0.143677 0.511423
vt 0.507050 0.870624
vt 0.494585 0.870428
vt 0.494609 0.858229
vt 0.506658 0.858419
s 1
usemtl Material.038
f 127/209/37 107/210/37 111/211/37 126/212/37
f 128/213/38 109/214/38 105/215/38 125/216/38
f 110/217/38 128/213/38 125/216/38 106/218/38
f 108/219/37 127/209/37 126/212/37 112/220/37
usemtl Material.039
f 122/221/39 123/222/39 111/223/39 107/224/39
f 149/225/40 147/226/40 109/227/40 128/228/40
f 121/229/41 124/230/41 108/231/41 112/232/41
f 134/233/42 122/234/43 107/235/44 127/236/44
f 131/237/45 120/238/45 114/239/45 129/240/45
f 119/241/41 118/242/41 116/243/41 113/244/41
f 133/245/46 123/246/47 115/247/48 130/248/48
f 120/249/49 117/250/49 115/251/49 114/252/49
f 138/253/50 135/254/50 117/250/50 120/249/50
f 137/255/41 136/256/41 118/242/41 119/241/41
f 139/257/44 138/258/44 120/238/44 131/237/44
f 130/248/51 115/247/51 117/259/51 132/260/51
f 126/261/40 111/262/40 123/246/47 133/245/46
f 129/240/52 114/239/52 122/234/43 134/233/42
f 113/244/41 116/243/41 124/230/41 121/229/41
f 114/252/53 115/251/53 123/222/53 122/221/53
f 116/263/52 129/240/52 134/233/42 124/264/42
f 112/265/40 126/261/40 133/245/46 121/266/46
f 113/267/51 130/248/51 132/260/51 119/268/51
f 136/269/44 139/257/44 131/237/44 118/270/44
f 121/266/46 133/245/46 130/248/48 113/267/48
f 118/270/45 131/237/45 129/240/45 116/263/45
f 124/264/42 134/233/42 127/236/44 108/271/44
f 150/272/40 149/225/40 128/228/40 110/273/40
f 119/268/40 132/260/40 140/274/40 137/275/40
f 142/276/44 146/277/44 139/257/44 136/269/44
f 146/277/44 145/278/44 138/258/44 139/257/44
f 144/279/41 142/280/41 136/256/41 137/255/41
f 145/281/39 141/282/39 135/254/39 138/253/39
f 132/260/40 117/259/40 135/283/40 140/274/40
f 151/284/54 147/285/54 141/282/55 145/281/55
f 150/286/41 148/287/41 142/280/41 144/279/41
f 152/288/44 151/289/44 145/278/44 146/277/44
f 148/290/44 152/288/44 146/277/44 142/276/44
f 137/275/40 140/274/40 143/291/40 144/292/40
f 140/274/40 135/283/40 141/293/40 143/291/40
f 106/294/44 125/295/44 152/288/44 148/290/44
f 125/295/44 105/296/44 151/289/44 152/288/44
f 110/297/41 106/298/41 148/287/41 150/286/41
f 105/299/56 109/300/56 147/285/54 151/284/54
f 144/292/40 143/291/40 149/225/40 150/272/40
f 143/291/40 141/293/40 147/226/40 149/225/40

v 0.242412 3.262815 10.341666
v 0.242412 -0.004842 10.341667
v 0.246206 3.273117 10.768981
v 0.246366 -0.004842 10.786922
v -0.159024 3.249144 10.361349
v -0.202842 -0.004842 10.345621
v -0.175602 3.273117 10.790668
v -0.175602 -0.004842 10.790668
v 0.244389 3.273117 10.564294
v 0.244389 -0.004842 10.564294
v -0.200865 3.273117 10.568248
v -0.200865 -0.004842 10.568248
v 0.245377 -0.004842 10.675608
v -0.199877 3.273117 10.679561
v 0.245377 3.273117 10.675608
v -0.199877 -0.004842 10.679562
v 0.243400 3.273117 10.452980
v -0.201854 -0.004842 10.456934
v 0.243400 -0.004842 10.452981
v -0.201854 3.273117 10.456934
v 0.023738 3.243914 10.788898
v 0.023738 -0.004842 10.788898
v 0.019785 3.273117 10.343643
v 0.019785 -0.004842 10.343644
v 0.021762 -0.004842 10.566271
v 0.021762 3.285926 10.566271
v 0.022750 3.285926 10.677584
v 0.022750 -0.004842 10.677585
v 0.020773 -0.004842 10.454958
v 0.020773 3.273117 10.454957
v 0.135052 3.243914 10.787910
v 0.131098 -0.004842 10.342655
v 0.133075 3.273117 10.565282
v 0.134064 3.273117 10.676596
v 0.132087 3.273117 10.453969
v 0.135052 -0.004842 10.787910
v 0.131098 3.273117 10.342655
v 0.133075 -0.004842 10.565283
v 0.134064 -0.004842 10.676597
v 0.132087 -0.004842 10.453969
v -0.087575 -0.004842 10.789886
v -0.091529 3.273117 10.344632
v -0.089552 -0.004842 10.567260
v -0.088564 -0.004842 10.678573
v -0.090540 -0.004842 10.455946
v -0.087575 3.273117 10.789886
v -0.091529 -0.004842 10.344632
v -0.089552 3.285926 10.567259
v -0.088564 3.273117 10.678573
v -0.090540 3.273117 10.455945
v 0.242412 1.628987 10.341667
v 0.246286 1.634138 10.777951
v -0.175799 1.634138 10.768490
v -0.180933 1.622151 10.353485
v -0.200865 1.634138 10.568248
v 0.252367 1.634138 10.564223
v -0.199877 1.634138 10.679562
v 0.245377 1.634138 10.675608
v 0.243400 1.634138 10.452980
v -0.201854 1.634138 10.456934
v 0.019785 1.570311 10.343644
v 0.023738 1.619536 10.788898
v 0.135052 1.619536 10.787910
v 0.101289 1.570311 10.342920
v -0.065602 1.570311 10.344402
v -0.087575 1.634138 10.789886
v 0.246246 2.453584 10.773466
v -0.175701 2.453584 10.779578
v -0.169979 2.435604 10.357416
v -0.200865 2.453584 10.568248
v 0.248378 2.453584 10.564259
v -0.199877 2.453584 10.679561
v 0.245377 2.453584 10.675608
v 0.243400 2.453584 10.452980
v -0.201854 2.453584 10.456934
v 0.019785 2.453584 10.343643
v 0.023738 2.431683 10.788898
v 0.135052 2.431683 10.787910
v 0.131098 2.453584 10.342655
v -0.091529 2.453584 10.344632
v -0.087575 2.453584 10.789886
v 0.242412 2.445858 10.341667
v 0.246226 2.863350 10.771223
v -0.175651 2.863350 10.785123
v -0.164501 2.826296 10.359383
v -0.200865 2.863350 10.568248
v 0.246384 2.863350 10.564276
v -0.199877 2.863350 10.679561
v 0.245377 2.863350 10.675608
v 0.243400 2.863350 10.452980
v -0.201854 2.863350 10.456934
v 0.019785 2.847273 10.343643
v 0.023738 2.837799 10.788898
v 0.135052 2.837799 10.787910
v 0.104047 2.847273 10.342896
v -0.064425 2.847273 10.344391
v -0.087575 2.863350 10.789886
v 0.242412 2.838259 10.341667
v 0.246216 3.152710 10.770089
v -0.175626 3.152710 10.787927
v -0.161732 3.130218 10.360377
v -0.200865 3.152710 10.568248
v 0.245375 3.152710 10.564285
v -0.199877 3.152710 10.679561
v 0.245377 3.152710 10.675608
v 0.243400 3.152710 10.452980
v -0.201854 3.152710 10.456934
v 0.019785 3.152710 10.343643
v 0.023738 3.125312 10.788898
v 0.135052 3.125312 10.787910
v 0.104047 3.152710 10.342896
v -0.064425 3.152710 10.344391
v -0.087575 3.152710 10.789886
v 0.242412 3.143045 10.341667
v 0.242412 1.254476 10.341667
v 0.246326 1.257052 10.782436
v -0.175701 1.257052 10.779579
v -0.191888 1.251059 10.349553
v -0.200865 1.257052 10.568248
v 0.248378 1.257052 10.564259
v -0.199877 1.257052 10.679562
v 0.245377 1.257052 10.675608
v 0.243400 1.257052 10.452981
v -0.201854 1.257052 10.456934
v 0.019785 1.257052 10.343644
v 0.023738 1.249751 10.788898
v 0.135052 1.249751 10.787910
v 0.101289 1.257052 10.342920
v -0.065602 1.257052 10.344402
v -0.087575 1.257052 10.789886
vn 1.0000 -0.0000 -0.0089
vn -0.0540 0.0044 0.9985
vn -0.9991 0.0044 -0.0411
vn -0.0089 -0.0000 -1.0000
vn -1.0000 -0.0000 0.0089
vn 0.9996 -0.0016 -0.0268
vn -0.9747 0.0009 0.2237
vn 1.0000 -0.0016 0.0090
vn 0.0089 -0.0000 1.0000
vn 0.0290 0.0018 0.9996
vn -0.0259 0.0018 -0.9997
vn -0.1119 0.0014 -0.9937
vn 0.1086 0.0027 0.9941
vn 0.9990 0.0024 0.0448
vn 0.9990 -0.0014 0.0448
vn -0.9689 -0.0016 0.2474
vn -0.9689 0.0009 0.2474
vn -0.9689 0.0010 0.2474
vn 0.9980 0.0024 -0.0625
vn 0.9980 -0.0014 -0.0625
vn -0.9675 0.0071 -0.2527
vn -0.1769 -0.0066 0.9842
vn 1.0000 0.0006 -0.0044
vn -0.0852 -0.0067 0.9963
vn -0.9428 0.0073 -0.3332
vn 0.9998 0.0010 -0.0189
vn 0.9996 0.0021 -0.0290
vn 0.9994 0.0024 -0.0357
vn -0.9734 -0.0000 0.2292
vn -0.9743 -0.0013 0.2251
vn -0.9734 -0.0015 0.2292
vn 0.9998 0.0024 0.0180
vn 0.1381 0.0027 0.9904
vn -0.1556 0.0086 -0.9878
vn -0.1555 0.0023 -0.9878
vn -0.0575 0.0067 -0.9983
vn 0.1536 0.0020 0.9881
vn 0.1614 0.0043 0.9869
vn 0.1529 0.0019 0.9882
vn 0.9999 0.0015 -0.0133
vn 1.0000 0.0029 -0.0089
vn 1.0000 0.0015 -0.0044
vn 1.0000 0.0017 0.0045
vn -0.9754 -0.0070 0.2202
vn -0.9758 -0.0017 0.2184
vn -0.9282 0.0050 -0.3720
vn -0.0381 -0.0048 0.9993
vn 1.0000 0.0020 -0.0067
vn -0.0067 -0.0114 0.9999
vn -0.9170 0.0120 -0.3988
vn 0.9999 0.0021 -0.0112
vn 1.0000 0.0041 -0.0089
vn -0.9764 -0.0024 0.2159
vn 0.1620 0.0046 0.9868
vn -0.1907 -0.0145 -0.9815
vn 0.0686 0.0060 0.9976
vn 0.9990 -0.0053 0.0448
vn -0.9689 0.0035 0.2474
vn 0.9980 -0.0053 -0.0625
vn -0.9891 0.0153 -0.1462
vn -0.1769 0.0144 0.9841
vn -0.1454 0.9790 -0.1428
vn -0.0000 -1.0000 -0.0000
vn -0.0379 0.9985 0.0385
vn -0.0568 0.9967 0.0578
vn -0.0257 0.9991 0.0340
vn -0.0000 1.0000 -0.0000
vn -0.0293 0.9959 -0.0858
vn -0.0295 0.9959 -0.0856
vn -0.0578 0.9967 -0.0568
vn 0.0428 0.9990 -0.0147
vn 0.0257 0.9993 -0.0261
vn 0.0568 0.9967 -0.0578
vn 0.0858 0.9959 -0.0293
vn 0.0574 0.9510 0.3037
vn 0.1143 0.9934 -0.0010
vn 0.0229 0.9995 -0.0233
vn 0.0458 0.9979 -0.0466
vn -0.1164 0.9831 0.1413
vn -0.0010 0.9934 -0.1143
vn 0.0738 0.9801 0.1843
vt 0.532902 0.406665
vt 0.545050 0.406747
vt 0.545890 0.315595
vt 0.533415 0.315537
vt 0.498547 0.368984
vt 0.486022 0.369310
vt 0.487497 0.255279
vt 0.499855 0.255106
vt 0.507344 0.393155
vt 0.494258 0.392504
vt 0.494905 0.295142
vt 0.508313 0.295198
vt 0.505479 0.484658
vt 0.495739 0.484406
vt 0.496678 0.399772
vt 0.504241 0.399816
vt 0.534630 0.393333
vt 0.520983 0.393244
vt 0.521729 0.295254
vt 0.535154 0.295310
vt 0.507593 0.406492
vt 0.520238 0.406632
vt 0.520948 0.315479
vt 0.508488 0.315421
vt 0.546756 0.394158
vt 0.548436 0.296501
vt 0.494953 0.406110
vt 0.496035 0.315364
vt 0.517005 0.484748
vt 0.511107 0.484702
vt 0.511808 0.399860
vt 0.519377 0.399904
vt 0.530632 0.367746
vt 0.514577 0.367834
vt 0.515514 0.254887
vt 0.531209 0.254667
vt 0.546713 0.368827
vt 0.546941 0.254447
vt 0.525730 0.484448
vt 0.526948 0.399948
vt 0.512612 0.604620
vt 0.495803 0.607814
vt 0.497239 0.482862
vt 0.513640 0.480782
vt 0.523731 0.566568
vt 0.518228 0.567753
vt 0.516851 0.506232
vt 0.524825 0.509934
vt 0.510422 0.567677
vt 0.502618 0.567601
vt 0.505279 0.506136
vt 0.510930 0.506183
vt 0.546237 0.608257
vt 0.529423 0.604821
vt 0.530056 0.480825
vt 0.546486 0.483207
vt 0.519439 0.595934
vt 0.505341 0.595774
vt 0.506376 0.491112
vt 0.520236 0.491234
vt 0.492722 0.593324
vt 0.505748 0.594394
vt 0.506699 0.497562
vt 0.493872 0.496857
vt 0.518786 0.594595
vt 0.531845 0.594689
vt 0.532390 0.497793
vt 0.519529 0.497784
vt 0.546130 0.596162
vt 0.533546 0.596094
vt 0.534106 0.491356
vt 0.545076 0.491816
vt 0.494823 0.566981
vt 0.495454 0.510095
vt 0.492927 0.593012
vt 0.493612 0.489865
vt 0.482680 0.607910
vt 0.484546 0.483340
vt 0.543319 0.594818
vt 0.544211 0.497899
vt 0.531573 0.643143
vt 0.542873 0.643283
vt 0.495086 0.670297
vt 0.481747 0.670201
vt 0.504824 0.648110
vt 0.492584 0.644592
vt 0.504254 0.595474
vt 0.494516 0.594731
vt 0.533266 0.648468
vt 0.519040 0.648289
vt 0.505272 0.642815
vt 0.518415 0.643006
vt 0.546656 0.648340
vt 0.492147 0.641562
vt 0.516127 0.595598
vt 0.510192 0.595536
vt 0.529107 0.666825
vt 0.512098 0.666546
vt 0.546113 0.670789
vt 0.523183 0.594172
vt 0.511838 0.697856
vt 0.494723 0.701889
vt 0.522858 0.615831
vt 0.515970 0.617410
vt 0.546050 0.702406
vt 0.528947 0.698175
vt 0.518838 0.674761
vt 0.504562 0.674572
vt 0.491856 0.665952
vt 0.505031 0.667297
vt 0.518228 0.667483
vt 0.531435 0.667641
vt 0.546923 0.674723
vt 0.533124 0.674950
vt 0.504051 0.617279
vt 0.494275 0.616479
vt 0.492411 0.670671
vt 0.481275 0.701696
vt 0.542647 0.667787
vt 0.531300 0.691596
vt 0.542427 0.691747
vt 0.494368 0.732779
vt 0.480814 0.732492
vt 0.504307 0.700447
vt 0.492241 0.696171
vt 0.529335 0.721026
vt 0.545058 0.719843
vt 0.545117 0.691659
vt 0.529477 0.692775
vt 0.532985 0.700843
vt 0.518641 0.700645
vt 0.504796 0.691236
vt 0.518044 0.691416
vt 0.547183 0.700519
vt 0.491572 0.689801
vt 0.498005 0.720392
vt 0.513652 0.720709
vt 0.513876 0.692490
vt 0.498310 0.692206
vt 0.528791 0.728829
vt 0.511584 0.728471
vt 0.545989 0.733321
vt 0.488407 0.717118
vt 0.488407 0.689115
vt 0.508259 0.497638
vt 0.495026 0.497403
vt 0.496802 0.505536
vt 0.508021 0.510867
vt 0.524729 0.445553
vt 0.494545 0.445003
vt 0.495081 0.414769
vt 0.525281 0.415326
vt 0.585053 0.446650
vt 0.554898 0.446102
vt 0.555467 0.415882
vt 0.585637 0.416439
vt 0.534715 0.498108
vt 0.521433 0.497859
vt 0.521247 0.511100
vt 0.534471 0.511334
vt 0.547939 0.498343
vt 0.547744 0.508802
vt 0.615192 0.447199
vt 0.615793 0.416995
vt 0.521971 0.471400
vt 0.508735 0.471162
vt 0.508497 0.484403
vt 0.521674 0.484654
vt 0.553764 0.506441
vt 0.523627 0.505907
vt 0.524178 0.475746
vt 0.554331 0.476288
vt 0.613992 0.507508
vt 0.583885 0.506974
vt 0.584469 0.476829
vt 0.614592 0.477370
vt 0.548696 0.471779
vt 0.535204 0.471638
vt 0.534875 0.484890
vt 0.548447 0.485083
vt 0.493476 0.505373
vt 0.494011 0.475205
vt 0.495496 0.470924
vt 0.495261 0.484167
vt 0.508973 0.457915
vt 0.495730 0.457616
vt 0.535448 0.458394
vt 0.522212 0.458154
vt 0.546549 0.458595
vt 0.523077 0.536035
vt 0.492943 0.535509
vt 0.583303 0.537087
vt 0.553197 0.536561
vt 0.613518 0.531317
s 1
usemtl Material.040
f 274/301/57 268/302/57 156/303/57 165/304/57
f 282/305/58 269/306/58 160/307/58 193/308/58
f 276/309/59 270/310/59 158/311/59 170/312/59
f 280/313/60 267/314/60 154/315/60 184/316/60
f 273/317/61 271/318/61 164/319/61 168/320/61
f 275/321/62 272/322/62 162/323/62 171/324/62
f 269/325/63 273/317/63 168/320/63 160/326/63
f 272/322/64 274/301/64 165/304/64 162/323/64
f 267/327/57 275/321/57 171/324/57 154/328/57
f 271/318/61 276/309/61 170/312/61 164/319/61
f 281/329/60 277/330/60 176/331/60 199/332/60
f 279/333/65 278/334/65 174/335/65 188/336/65
f 268/337/66 279/333/66 188/336/66 156/338/66
f 277/330/60 280/313/60 184/316/60 176/331/60
f 270/339/67 281/329/67 199/332/67 158/340/67
f 278/334/65 282/305/65 193/308/65 174/335/65
f 229/341/65 233/342/65 218/343/65 214/344/65
f 221/345/68 232/346/68 217/347/68 206/348/68
f 228/349/60 231/350/60 216/351/60 213/352/60
f 219/353/69 230/354/69 215/355/69 204/356/69
f 230/354/65 229/341/65 214/344/65 215/355/65
f 232/346/60 228/349/60 213/352/60 217/347/60
f 222/357/61 227/358/61 212/359/61 207/360/61
f 234/361/57 226/362/57 211/363/57 203/364/57
f 223/365/70 225/366/70 210/367/71 208/368/71
f 220/369/72 224/370/72 209/371/73 205/372/74
f 226/362/75 223/365/75 208/368/76 211/363/76
f 224/370/61 222/357/61 207/360/61 209/371/61
f 231/350/60 234/373/60 203/374/60 216/351/60
f 227/358/77 221/375/77 206/376/77 212/359/77
f 233/342/78 220/377/78 205/378/78 218/343/78
f 225/366/57 219/379/57 204/380/57 210/367/57
f 241/381/79 235/382/57 219/379/57 225/366/57
f 249/383/80 236/384/80 220/377/80 233/342/80
f 243/385/81 237/386/81 221/375/81 227/358/81
f 247/387/60 250/388/60 234/373/60 231/350/60
f 240/389/61 238/390/61 222/357/61 224/370/61
f 242/391/82 239/392/83 223/365/84 226/362/84
f 236/393/85 240/389/86 224/370/87 220/369/87
f 239/392/88 241/381/88 225/366/88 223/365/88
f 250/394/57 242/391/82 226/362/57 234/361/57
f 238/390/61 243/385/61 227/358/61 222/357/61
f 248/395/60 244/396/60 228/349/60 232/346/60
f 246/397/65 245/398/65 229/341/65 230/354/65
f 235/399/89 246/397/89 230/354/89 219/353/89
f 244/396/60 247/387/60 231/350/60 228/349/60
f 237/400/90 248/395/90 232/346/90 221/345/90
f 245/398/65 249/383/65 233/342/65 229/341/65
f 261/401/65 265/402/65 249/383/65 245/398/65
f 253/403/91 264/404/91 248/395/91 237/400/91
f 206/348/92 217/347/92 281/329/92 270/339/92
f 251/405/93 262/406/94 246/397/95 235/399/95
f 262/406/65 261/401/65 245/398/65 246/397/65
f 214/344/65 218/343/65 282/305/65 278/334/65
f 254/407/61 259/408/61 243/385/61 238/390/61
f 266/409/57 258/410/96 242/391/82 250/394/57
f 255/411/97 257/412/98 241/381/79 239/392/99
f 252/413/100 256/414/101 240/389/86 236/393/85
f 258/410/96 255/411/97 239/392/83 242/391/82
f 256/414/61 254/407/61 238/390/61 240/389/61
f 263/415/60 266/416/60 250/388/60 247/387/60
f 259/408/102 253/417/102 237/386/102 243/385/102
f 265/402/103 252/418/103 236/384/103 249/383/103
f 257/412/98 251/419/57 235/382/57 241/381/79
f 167/420/104 155/421/57 251/419/57 257/412/98
f 198/422/105 159/423/105 252/418/105 265/402/105
f 172/424/106 157/425/106 253/417/106 259/408/106
f 189/426/60 153/427/60 266/428/60 263/429/60
f 166/430/61 163/431/61 254/407/61 256/414/61
f 169/432/107 161/433/108 255/411/97 258/410/96
f 159/434/109 166/430/109 256/414/101 252/413/100
f 161/433/108 167/420/104 257/412/98 255/411/97
f 153/435/57 169/432/107 258/410/96 266/409/57
f 163/431/61 172/424/61 259/408/61 254/407/61
f 194/436/60 175/437/60 260/438/60 264/439/60
f 183/440/65 173/441/65 261/401/65 262/406/65
f 155/442/110 183/440/110 262/406/94 251/405/93
f 175/437/60 189/426/60 263/429/60 260/438/60
f 157/443/111 194/436/111 264/439/111 253/444/111
f 173/441/65 198/422/65 265/402/65 261/401/65
f 204/356/112 215/355/112 279/333/112 268/337/112
f 215/355/65 214/344/65 278/334/65 279/333/65
f 207/360/61 212/359/61 276/309/61 271/318/61
f 203/364/57 211/363/57 275/321/57 267/327/57
f 208/368/71 210/367/71 274/301/113 272/322/113
f 205/372/74 209/371/73 273/317/114 269/325/114
f 211/363/76 208/368/76 272/322/115 275/321/115
f 209/371/61 207/360/61 271/318/61 273/317/61
f 216/351/60 203/374/60 267/314/60 280/313/60
f 212/359/116 206/376/116 270/310/116 276/309/116
f 218/343/117 205/378/117 269/306/117 282/305/117
f 210/367/57 204/380/57 268/302/57 274/301/57
usemtl Material.041
f 202/445/118 194/446/118 157/447/118 172/448/118
f 192/449/119 184/450/119 154/451/119 171/452/119
f 191/453/119 190/454/119 162/455/119 165/456/119
f 201/457/120 200/458/121 163/459/121 166/460/122
f 198/461/123 201/457/120 166/460/122 159/462/123
f 188/463/119 191/453/119 165/456/119 156/464/119
f 190/454/119 192/449/119 171/452/119 162/455/119
f 200/458/124 202/445/125 172/448/126 163/459/126
f 185/465/127 187/466/128 182/467/129 178/468/130
f 195/469/119 197/470/119 181/471/119 177/472/119
f 193/473/119 196/474/119 180/475/119 174/476/119
f 183/477/131 186/478/131 179/479/131 173/480/131
f 186/478/132 185/465/127 178/468/130 179/479/132
f 196/474/119 195/469/119 177/472/119 180/475/119
f 197/470/119 199/481/119 176/482/119 181/471/119
f 187/466/128 189/483/133 175/484/123 182/467/123
f 169/485/133 153/486/134 189/483/133 187/466/128
f 167/487/123 161/488/123 185/465/127 186/478/123
f 155/489/135 167/487/135 186/478/135 183/477/135
f 161/488/123 169/485/133 187/466/128 185/465/127
f 177/472/119 181/471/119 192/449/119 190/454/119
f 174/476/119 180/475/119 191/453/119 188/463/119
f 180/475/119 177/472/119 190/454/119 191/453/119
f 181/471/119 176/482/119 184/450/119 192/449/119
f 170/490/119 158/491/119 199/481/119 197/470/119
f 168/492/119 164/493/119 195/469/119 196/474/119
f 160/494/119 168/492/119 196/474/119 193/473/119
f 164/493/119 170/490/119 197/470/119 195/469/119
f 178/468/136 182/467/136 202/445/125 200/458/124
f 173/480/137 179/479/137 201/457/137 198/461/137
f 179/479/121 178/468/121 200/458/121 201/457/120
f 182/467/123 175/484/123 194/446/123 202/445/123

v 0.242412 3.262814 2.966848
v 0.242412 -0.004843 2.966848
v 0.246206 3.273116 3.394162
v 0.246366 -0.004843 3.412102
v -0.159024 3.249143 2.986530
v -0.202842 -0.004843 2.970802
v -0.175602 3.273116 3.415849
v -0.175602 -0.004843 3.415849
v 0.244389 3.273116 3.189475
v 0.244389 -0.004843 3.189475
v -0.200865 3.273116 3.193428
v -0.200865 -0.004843 3.193429
v 0.245377 -0.004843 3.300789
v -0.199877 3.273116 3.304742
v 0.245377 3.273116 3.300788
v -0.199877 -0.004843 3.304742
v 0.243400 3.273116 3.078161
v -0.201854 -0.004843 3.082115
v 0.243400 -0.004843 3.078162
v -0.201854 3.273116 3.082115
v 0.023738 3.243913 3.414079
v 0.023738 -0.004843 3.414079
v 0.019785 3.273116 2.968824
v 0.019785 -0.004843 2.968825
v 0.021762 -0.004843 3.191452
v 0.021762 3.285925 3.191452
v 0.022750 3.285925 3.302765
v 0.022750 -0.004843 3.302766
v 0.020773 -0.004843 3.080138
v 0.020773 3.273116 3.080138
v 0.135052 3.243913 3.413090
v 0.131098 -0.004843 2.967837
v 0.133075 3.273116 3.190463
v 0.134064 3.273116 3.301777
v 0.132087 3.273116 3.079149
v 0.135052 -0.004843 3.413091
v 0.131098 3.273116 2.967836
v 0.133075 -0.004843 3.190464
v 0.134064 -0.004843 3.301777
v 0.132087 -0.004843 3.079150
v -0.087575 -0.004843 3.415068
v -0.091529 3.273116 2.969813
v -0.089552 -0.004843 3.192441
v -0.088564 -0.004843 3.303754
v -0.090540 -0.004843 3.081127
v -0.087575 3.273116 3.415067
v -0.091529 -0.004843 2.969813
v -0.089552 3.285925 3.192440
v -0.088564 3.273116 3.303753
v -0.090540 3.273116 3.081126
v 0.242412 1.628986 2.966848
v 0.246286 1.634137 3.403132
v -0.175799 1.634137 3.393671
v -0.180933 1.622150 2.978666
v -0.200865 1.634137 3.193429
v 0.252367 1.634137 3.189404
v -0.199877 1.634137 3.304742
v 0.245377 1.634137 3.300789
v 0.243400 1.634137 3.078161
v -0.201854 1.634137 3.082115
v 0.019785 1.570310 2.968825
v 0.023738 1.619535 3.414079
v 0.135052 1.619535 3.413090
v 0.101289 1.570310 2.968101
v -0.065602 1.570310 2.969583
v -0.087575 1.634137 3.415067
v 0.246246 2.453583 3.398647
v -0.175701 2.453583 3.404759
v -0.169979 2.435603 2.982598
v -0.200865 2.453583 3.193429
v 0.248378 2.453583 3.189440
v -0.199877 2.453583 3.304742
v 0.245377 2.453583 3.300788
v 0.243400 2.453583 3.078161
v -0.201854 2.453583 3.082115
v 0.019785 2.453583 2.968825
v 0.023738 2.431682 3.414079
v 0.135052 2.431682 3.413090
v 0.131098 2.453583 2.967836
v -0.091529 2.453583 2.969813
v -0.087575 2.453583 3.415067
v 0.242412 2.445857 2.966848
v 0.246226 2.863349 3.396404
v -0.175651 2.863349 3.410304
v -0.164501 2.826295 2.984564
v -0.200865 2.863349 3.193428
v 0.246384 2.863349 3.189457
v -0.199877 2.863349 3.304742
v 0.245377 2.863349 3.300788
v 0.243400 2.863349 3.078161
v -0.201854 2.863349 3.082115
v 0.019785 2.847272 2.968824
v 0.023738 2.837798 3.414079
v 0.135052 2.837798 3.413090
v 0.104047 2.847272 2.968076
v -0.064425 2.847272 2.969572
v -0.087575 2.863349 3.415067
v 0.242412 2.838258 2.966848
v 0.246216 3.152709 3.395270
v -0.175626 3.152709 3.413107
v -0.161732 3.130217 2.985558
v -0.200865 3.152709 3.193428
v 0.245375 3.152709 3.189466
v -0.199877 3.152709 3.304742
v 0.245377 3.152709 3.300788
v 0.243400 3.152709 3.078161
v -0.201854 3.152709 3.082115
v 0.019785 3.152709 2.968824
v 0.023738 3.125311 3.414079
v 0.135052 3.125311 3.413090
v 0.104047 3.152709 2.968076
v -0.064425 3.152709 2.969572
v -0.087575 3.152709 3.415067
v 0.242412 3.143044 2.966848
v 0.242412 1.254475 2.966848
v 0.246326 1.257051 3.407617
v -0.175701 1.257051 3.404760
v -0.191888 1.251058 2.974734
v -0.200865 1.257051 3.193429
v 0.248378 1.257051 3.189440
v -0.199877 1.257051 3.304742
v 0.245377 1.257051 3.300789
v 0.243400 1.257051 3.078161
v -0.201854 1.257051 3.082115
v 0.019785 1.257051 2.968825
v 0.023738 1.249750 3.414079
v 0.135052 1.249750 3.413090
v 0.101289 1.257051 2.968101
v -0.065602 1.257051 2.969583
v -0.087575 1.257051 3.415067
vn 1.0000 -0.0000 -0.0089
vn -0.0540 0.0044 0.9985
vn -0.9991 0.0044 -0.0411
vn -0.0089 -0.0000 -1.0000
vn -1.0000 -0.0000 0.0089
vn 0.9996 -0.0016 -0.0268
vn -0.9747 0.0009 0.2237
vn 1.0000 -0.0016 0.0090
vn 0.0089 -0.0000 1.0000
vn 0.0290 0.0018 0.9996
vn -0.0259 0.0018 -0.9997
vn -0.1119 0.0015 -0.9937
vn 0.1086 0.0027 0.9941
vn 0.9990 0.0024 0.0448
vn 0.9990 -0.0014 0.0448
vn -0.9689 -0.0016 0.2474
vn -0.9689 0.0009 0.2474
vn -0.9689 0.0010 0.2474
vn 0.9980 0.0024 -0.0625
vn 0.9980 -0.0014 -0.0625
vn -0.9675 0.0071 -0.2527
vn -0.1769 -0.0066 0.9842
vn 1.0000 0.0006 -0.0044
vn -0.0852 -0.0067 0.9963
vn -0.9428 0.0073 -0.3332
vn 0.9998 0.0010 -0.0189
vn 0.9996 0.0021 -0.0290
vn 0.9994 0.0024 -0.0357
vn -0.9734 -0.0000 0.2292
vn -0.9743 -0.0013 0.2251
vn -0.9734 -0.0015 0.2292
vn 0.9998 0.0024 0.0180
vn 0.1381 0.0027 0.9904
vn -0.1556 0.0086 -0.9878
vn -0.1555 0.0023 -0.9878
vn -0.0576 0.0067 -0.9983
vn 0.1536 0.0021 0.9881
vn 0.1613 0.0043 0.9869
vn 0.1529 0.0019 0.9882
vn 0.9999 0.0015 -0.0133
vn 1.0000 0.0029 -0.0089
vn 1.0000 0.0015 -0.0044
vn 1.0000 0.0017 0.0045
vn -0.9754 -0.0070 0.2202
vn -0.9758 -0.0017 0.2184
vn -0.9282 0.0050 -0.3720
vn -0.0381 -0.0048 0.9993
vn 1.0000 0.0020 -0.0067
vn -0.0067 -0.0114 0.9999
vn -0.9170 0.0120 -0.3988
vn 0.9999 0.0021 -0.0112
vn 1.0000 0.0041 -0.0089
vn -0.9764 -0.0024 0.2159
vn 0.1619 0.0046 0.9868
vn -0.1907 -0.0145 -0.9815
vn 0.0686 0.0060 0.9976
vn 0.9990 -0.0053 0.0448
vn -0.9689 0.0035 0.2474
vn 0.9980 -0.0053 -0.0625
vn -0.9891 0.0153 -0.1462
vn -0.1769 0.0144 0.9841
vn -0.1454 0.9790 -0.1428
vn -0.0000 -1.0000 -0.0000
vn -0.0379 0.9985 0.0385
vn -0.0568 0.9967 0.0578
vn -0.0257 0.9991 0.0340
vn -0.0000 1.0000 -0.0000
vn -0.0293 0.9959 -0.0858
vn -0.0295 0.9959 -0.0856
vn -0.0578 0.9967 -0.0568
vn 0.0428 0.9990 -0.0147
vn 0.0257 0.9993 -0.0261
vn 0.0568 0.9967 -0.0578
vn 0.0858 0.9959 -0.0293
vn 0.0574 0.9510 0.3037
vn 0.1143 0.9934 -0.0010
vn 0.0229 0.9995 -0.0233
vn 0.0458 0.9979 -0.0466
vn -0.1164 0.9831 0.1413
vn -0.0010 0.9934 -0.1143
vn 0.0738 0.9801 0.1843
vt 0.532902 0.406665
vt 0.545050 0.406747
vt 0.545890 0.315595
vt 0.533415 0.315537
vt 0.498547 0.368984
vt 0.486022 0.369310
vt 0.487497 0.255279
vt 0.499855 0.255106
vt 0.507344 0.393155
vt 0.494258 0.392504
vt 0.494905 0.295142
vt 0.508313 0.295198
vt 0.505479 0.484658
vt 0.495739 0.484406
vt 0.496678 0.399772
vt 0.504241 0.399816
vt 0.534630 0.393333
vt 0.520983 0.393244
vt 0.521729 0.295254
vt 0.535154 0.295310
vt 0.507593 0.406492
vt 0.520238 0.406632
vt 0.520948 0.315479
vt 0.508488 0.315421
vt 0.546756 0.394158
vt 0.548436 0.296501
vt 0.494953 0.406110
vt 0.496035 0.315364
vt 0.517005 0.484748
vt 0.511107 0.484702
vt 0.511808 0.399860
vt 0.519377 0.399904
vt 0.530632 0.367746
vt 0.514577 0.367834
vt 0.515514 0.254887
vt 0.531209 0.254667
vt 0.546713 0.368827
vt 0.546941 0.254447
vt 0.525730 0.484448
vt 0.526948 0.399948
vt 0.512612 0.604620
vt 0.495803 0.607814
vt 0.497239 0.482862
vt 0.513640 0.480782
vt 0.523731 0.566568
vt 0.518228 0.567753
vt 0.516851 0.506232
vt 0.524825 0.509934
vt 0.510422 0.567677
vt 0.502618 0.567601
vt 0.505279 0.506136
vt 0.510930 0.506183
vt 0.546237 0.608257
vt 0.529423 0.604821
vt 0.530056 0.480825
vt 0.546486 0.483207
vt 0.519439 0.595934
vt 0.505341 0.595774
vt 0.506376 0.491112
vt 0.520236 0.491234
vt 0.492722 0.593324
vt 0.505748 0.594394
vt 0.506699 0.497562
vt 0.493872 0.496857
vt 0.518786 0.594595
vt 0.531845 0.594689
vt 0.532390 0.497793
vt 0.519529 0.497784
vt 0.546130 0.596162
vt 0.533546 0.596094
vt 0.534106 0.491356
vt 0.545076 0.491816
vt 0.494823 0.566981
vt 0.495454 0.510095
vt 0.492927 0.593012
vt 0.493612 0.489865
vt 0.482680 0.607910
vt 0.484546 0.483340
vt 0.543319 0.594818
vt 0.544211 0.497899
vt 0.531573 0.643143
vt 0.542873 0.643283
vt 0.495086 0.670297
vt 0.481747 0.670201
vt 0.504824 0.648110
vt 0.492584 0.644592
vt 0.504254 0.595474
vt 0.494516 0.594731
vt 0.533266 0.648468
vt 0.519040 0.648289
vt 0.505272 0.642815
vt 0.518415 0.643006
vt 0.546656 0.648340
vt 0.492147 0.641562
vt 0.516127 0.595598
vt 0.510192 0.595536
vt 0.529107 0.666825
vt 0.512098 0.666546
vt 0.546113 0.670789
vt 0.523183 0.594172
vt 0.511838 0.697856
vt 0.494723 0.701889
vt 0.522858 0.615831
vt 0.515970 0.617410
vt 0.546050 0.702406
vt 0.528947 0.698175
vt 0.518838 0.674761
vt 0.504562 0.674572
vt 0.491856 0.665952
vt 0.505031 0.667297
vt 0.518228 0.667483
vt 0.531435 0.667641
vt 0.546923 0.674723
vt 0.533124 0.674950
vt 0.504051 0.617279
vt 0.494275 0.616479
vt 0.492411 0.670671
vt 0.481275 0.701696
vt 0.542647 0.667787
vt 0.531300 0.691596
vt 0.542427 0.691747
vt 0.494368 0.732779
vt 0.480814 0.732492
vt 0.504307 0.700447
vt 0.492241 0.696171
vt 0.529335 0.721026
vt 0.545058 0.719843
vt 0.545117 0.691659
vt 0.529477 0.692775
vt 0.532985 0.700843
vt 0.518641 0.700645
vt 0.504796 0.691236
vt 0.518044 0.691416
vt 0.547183 0.700519
vt 0.491572 0.689801
vt 0.498005 0.720392
vt 0.513652 0.720709
vt 0.513876 0.692490
vt 0.498310 0.692206
vt 0.528791 0.728829
vt 0.511584 0.728471
vt 0.545989 0.733321
vt 0.488407 0.717118
vt 0.488407 0.689115
vt 0.508259 0.497638
vt 0.495026 0.497403
vt 0.496802 0.505536
vt 0.508021 0.510867
vt 0.524729 0.445553
vt 0.494545 0.445003
vt 0.495081 0.414769
vt 0.525281 0.415326
vt 0.585053 0.446650
vt 0.554898 0.446102
vt 0.555467 0.415882
vt 0.585637 0.416439
vt 0.534715 0.498108
vt 0.521433 0.497859
vt 0.521247 0.511100
vt 0.534471 0.511334
vt 0.547939 0.498343
vt 0.547744 0.508802
vt 0.615192 0.447199
vt 0.615793 0.416995
vt 0.521971 0.471400
vt 0.508735 0.471162
vt 0.508497 0.484403
vt 0.521674 0.484654
vt 0.553764 0.506441
vt 0.523627 0.505907
vt 0.524178 0.475746
vt 0.554331 0.476288
vt 0.613992 0.507508
vt 0.583885 0.506974
vt 0.584469 0.476829
vt 0.614592 0.477370
vt 0.548696 0.471779
vt 0.535204 0.471638
vt 0.534875 0.484890
vt 0.548447 0.485083
vt 0.493476 0.505373
vt 0.494011 0.475205
vt 0.495496 0.470924
vt 0.495261 0.484167
vt 0.508973 0.457915
vt 0.495730 0.457616
vt 0.535448 0.458394
vt 0.522212 0.458154
vt 0.546549 0.458595
vt 0.523077 0.536035
vt 0.492943 0.535509
vt 0.583303 0.537087
vt 0.553197 0.536561
vt 0.613518 0.531317
s 1
usemtl Material.040
f 404/495/138 398/496/138 286/497/138 295/498/138
f 412/499/139 399/500/139 290/501/139 323/502/139
f 406/503/140 400/504/140 288/505/140 300/506/140
f 410/507/141 397/508/141 284/509/141 314/510/141
f 403/511/142 401/512/142 294/513/142 298/514/142
f 405/515/143 402/516/143 292/517/143 301/518/143
f 399/519/144 403/511/144 298/514/144 290/520/144
f 402/516/145 404/495/145 295/498/145 292/517/145
f 397/521/138 405/515/138 301/518/138 284/522/138
f 401/512/142 406/503/142 300/506/142 294/513/142
f 411/523/141 407/524/141 306/525/141 329/526/141
f 409/527/146 408/528/146 304/529/146 318/530/146
f 398/531/147 409/527/147 318/530/147 286/532/147
f 407/524/141 410/507/141 314/510/141 306/525/141
f 400/533/148 411/523/148 329/526/148 288/534/148
f 408/528/146 412/499/146 323/502/146 304/529/146
f 359/535/146 363/536/146 348/537/146 344/538/146
f 351/539/149 362/540/149 347/541/149 336/542/149
f 358/543/141 361/544/141 346/545/141 343/546/141
f 349/547/150 360/548/150 345/549/150 334/550/150
f 360/548/146 359/535/146 344/538/146 345/549/146
f 362/540/141 358/543/141 343/546/141 347/541/141
f 352/551/142 357/552/142 342/553/142 337/554/142
f 364/555/138 356/556/138 341/557/138 333/558/138
f 353/559/151 355/560/151 340/561/152 338/562/152
f 350/563/153 354/564/153 339/565/154 335/566/155
f 356/556/156 353/559/156 338/562/157 341/557/157
f 354/564/142 352/551/142 337/554/142 339/565/142
f 361/544/141 364/567/141 333/568/141 346/545/141
f 357/552/158 351/569/158 336/570/158 342/553/158
f 363/536/159 350/571/159 335/572/159 348/537/159
f 355/560/138 349/573/138 334/574/138 340/561/138
f 371/575/160 365/576/138 349/573/138 355/560/138
f 379/577/161 366/578/161 350/571/161 363/536/161
f 373/579/162 367/580/162 351/569/162 357/552/162
f 377/581/141 380/582/141 364/567/141 361/544/141
f 370/583/142 368/584/142 352/551/142 354/564/142
f 372/585/163 369/586/164 353/559/165 356/556/165
f 366/587/166 370/583/167 354/564/168 350/563/168
f 369/586/169 371/575/169 355/560/169 353/559/169
f 380/588/138 372/585/163 356/556/138 364/555/138
f 368/584/142 373/579/142 357/552/142 352/551/142
f 378/589/141 374/590/141 358/543/141 362/540/141
f 376/591/146 375/592/146 359/535/146 360/548/146
f 365/593/170 376/591/170 360/548/170 349/547/170
f 374/590/141 377/581/141 361/544/141 358/543/141
f 367/594/171 378/589/171 362/540/171 351/539/171
f 375/592/146 379/577/146 363/536/146 359/535/146
f 391/595/146 395/596/146 379/577/146 375/592/146
f 383/597/172 394/598/172 378/589/172 367/594/172
f 336/542/173 347/541/173 411/523/173 400/533/173
f 381/599/174 392/600/175 376/591/176 365/593/176
f 392/600/146 391/595/146 375/592/146 376/591/146
f 344/538/146 348/537/146 412/499/146 408/528/146
f 384/601/142 389/602/142 373/579/142 368/584/142
f 396/603/138 388/604/177 372/585/163 380/588/138
f 385/605/178 387/606/179 371/575/160 369/586/180
f 382/607/181 386/608/182 370/583/167 366/587/166
f 388/604/177 385/605/178 369/586/164 372/585/163
f 386/608/142 384/601/142 368/584/142 370/583/142
f 393/609/141 396/610/141 380/582/141 377/581/141
f 389/602/183 383/611/183 367/580/183 373/579/183
f 395/596/184 382/612/184 366/578/184 379/577/184
f 387/606/179 381/613/138 365/576/138 371/575/160
f 297/614/185 285/615/138 381/613/138 387/606/179
f 328/616/186 289/617/186 382/612/186 395/596/186
f 302/618/187 287/619/187 383/611/187 389/602/187
f 319/620/141 283/621/141 396/622/141 393/623/141
f 296/624/142 293/625/142 384/601/142 386/608/142
f 299/626/188 291/627/189 385/605/178 388/604/177
f 289/628/190 296/624/190 386/608/182 382/607/181
f 291/627/189 297/614/185 387/606/179 385/605/178
f 283/629/138 299/626/188 388/604/177 396/603/138
f 293/625/142 302/618/142 389/602/142 384/601/142
f 324/630/141 305/631/141 390/632/141 394/633/141
f 313/634/146 303/635/146 391/595/146 392/600/146
f 285/636/191 313/634/191 392/600/175 381/599/174
f 305/631/141 319/620/141 393/623/141 390/632/141
f 287/637/192 324/630/192 394/633/192 383/638/192
f 303/635/146 328/616/146 395/596/146 391/595/146
f 334/550/193 345/549/193 409/527/193 398/531/193
f 345/549/146 344/538/146 408/528/146 409/527/146
f 337/554/142 342/553/142 406/503/142 401/512/142
f 333/558/138 341/557/138 405/515/138 397/521/138
f 338/562/152 340/561/152 404/495/194 402/516/194
f 335/566/155 339/565/154 403/511/195 399/519/195
f 341/557/157 338/562/157 402/516/196 405/515/196
f 339/565/142 337/554/142 401/512/142 403/511/142
f 346/545/141 333/568/141 397/508/141 410/507/141
f 342/553/197 336/570/197 400/504/197 406/503/197
f 348/537/198 335/572/198 399/500/198 412/499/198
f 340/561/138 334/574/138 398/496/138 404/495/138
usemtl Material.041
f 332/639/199 324/640/199 287/641/199 302/642/199
f 322/643/200 314/644/200 284/645/200 301/646/200
f 321/647/200 320/648/200 292/649/200 295/650/200
f 331/651/201 330/652/202 293/653/202 296/654/203
f 328/655/204 331/651/201 296/654/203 289/656/204
f 318/657/200 321/647/200 295/650/200 286/658/200
f 320/648/200 322/643/200 301/646/200 292/649/200
f 330/652/205 332/639/206 302/642/207 293/653/207
f 315/659/208 317/660/209 312/661/210 308/662/211
f 325/663/200 327/664/200 311/665/200 307/666/200
f 323/667/200 326/668/200 310/669/200 304/670/200
f 313/671/212 316/672/212 309/673/212 303/674/212
f 316/672/213 315/659/208 308/662/211 309/673/213
f 326/668/200 325/663/200 307/666/200 310/669/200
f 327/664/200 329/675/200 306/676/200 311/665/200
f 317/660/209 319/677/214 305/678/204 312/661/204
f 299/679/214 283/680/215 319/677/214 317/660/209
f 297/681/204 291/682/204 315/659/208 316/672/204
f 285/683/216 297/681/216 316/672/216 313/671/216
f 291/682/204 299/679/214 317/660/209 315/659/208
f 307/666/200 311/665/200 322/643/200 320/648/200
f 304/670/200 310/669/200 321/647/200 318/657/200
f 310/669/200 307/666/200 320/648/200 321/647/200
f 311/665/200 306/676/200 314/644/200 322/643/200
f 300/684/200 288/685/200 329/675/200 327/664/200
f 298/686/200 294/687/200 325/663/200 326/668/200
f 290/688/200 298/686/200 326/668/200 323/667/200
f 294/687/200 300/684/200 327/664/200 325/663/200
f 308/662/217 312/661/217 332/639/206 330/652/205
f 303/674/218 309/673/218 331/651/218 328/655/218
f 309/673/202 308/662/202 330/652/202 331/651/201
f 312/661/204 305/678/204 324/640/204 332/639/204

v 0.242412 2.843018 -4.413419
v 0.242412 -0.424638 -4.413419
v 0.246206 2.853320 -3.986105
v 0.246366 -0.424638 -3.968164
v -0.159024 2.829347 -4.393737
v -0.202842 -0.424638 -4.409465
v -0.175602 2.853320 -3.964418
v -0.175602 -0.424638 -3.964418
v 0.244389 2.853320 -4.190792
v 0.244389 -0.424638 -4.190792
v -0.200865 2.853320 -4.186839
v -0.200865 -0.424638 -4.186838
v 0.245377 -0.424638 -4.079478
v -0.199877 2.853320 -4.075525
v 0.245377 2.853320 -4.079479
v -0.199877 -0.424638 -4.075524
v 0.243400 2.853320 -4.302106
v -0.201854 -0.424638 -4.298151
v 0.243400 -0.424638 -4.302105
v -0.201854 2.853320 -4.298152
v 0.023738 2.824118 -3.966188
v 0.023738 -0.424638 -3.966188
v 0.019785 2.853320 -4.411442
v 0.019785 -0.424638 -4.411442
v 0.021762 -0.424638 -4.188815
v 0.021762 2.866129 -4.188816
v 0.022750 2.866129 -4.077502
v 0.022750 -0.424638 -4.077501
v 0.020773 -0.424638 -4.300128
v 0.020773 2.853320 -4.300129
v 0.135052 2.824118 -3.967177
v 0.131098 -0.424638 -4.412430
v 0.133075 2.853320 -4.189804
v 0.134064 2.853320 -4.078490
v 0.132087 2.853320 -4.301117
v 0.135052 -0.424638 -3.967176
v 0.131098 2.853320 -4.412431
v 0.133075 -0.424638 -4.189803
v 0.134064 -0.424638 -4.078490
v 0.132087 -0.424638 -4.301117
v -0.087575 -0.424638 -3.965199
v -0.091529 2.853320 -4.410454
v -0.089552 -0.424638 -4.187827
v -0.088564 -0.424638 -4.076513
v -0.090540 -0.424638 -4.299140
v -0.087575 2.853320 -3.965200
v -0.091529 -0.424638 -4.410454
v -0.089552 2.866129 -4.187827
v -0.088564 2.853320 -4.076513
v -0.090540 2.853320 -4.299140
v 0.242412 1.209190 -4.413419
v 0.246286 1.214341 -3.977135
v -0.175799 1.214341 -3.986596
v -0.180933 1.202354 -4.401601
v -0.200865 1.214341 -4.186838
v 0.252367 1.214341 -4.190863
v -0.199877 1.214341 -4.075525
v 0.245377 1.214341 -4.079478
v 0.243400 1.214341 -4.302105
v -0.201854 1.214341 -4.298152
v 0.019785 1.150514 -4.411442
v 0.023738 1.199740 -3.966188
v 0.135052 1.199740 -3.967176
v 0.101289 1.150514 -4.412166
v -0.065602 1.150514 -4.410684
v -0.087575 1.214341 -3.965200
v 0.246246 2.033788 -3.981620
v -0.175701 2.033788 -3.975508
v -0.169979 2.015808 -4.397669
v -0.200865 2.033787 -4.186839
v 0.248378 2.033787 -4.190827
v -0.199877 2.033787 -4.075525
v 0.245377 2.033787 -4.079478
v 0.243400 2.033787 -4.302105
v -0.201854 2.033787 -4.298152
v 0.019785 2.033787 -4.411442
v 0.023738 2.011886 -3.966188
v 0.135052 2.011886 -3.967176
v 0.131098 2.033787 -4.412431
v -0.091529 2.033787 -4.410454
v -0.087575 2.033788 -3.965200
v 0.242412 2.026061 -4.413419
v 0.246226 2.443554 -3.983862
v -0.175651 2.443554 -3.969963
v -0.164501 2.406500 -4.395703
v -0.200865 2.443554 -4.186839
v 0.246384 2.443554 -4.190810
v -0.199877 2.443554 -4.075525
v 0.245377 2.443554 -4.079479
v 0.243400 2.443554 -4.302105
v -0.201854 2.443554 -4.298152
v 0.019785 2.427476 -4.411442
v 0.023738 2.418002 -3.966188
v 0.135052 2.418002 -3.967177
v 0.104047 2.427476 -4.412190
v -0.064425 2.427476 -4.410695
v -0.087575 2.443554 -3.965200
v 0.242412 2.418462 -4.413419
v 0.246216 2.732913 -3.984997
v -0.175626 2.732913 -3.967160
v -0.161732 2.710422 -4.394709
v -0.200865 2.732913 -4.186839
v 0.245375 2.732913 -4.190801
v -0.199877 2.732913 -4.075525
v 0.245377 2.732913 -4.079479
v 0.243400 2.732913 -4.302106
v -0.201854 2.732913 -4.298152
v 0.019785 2.732913 -4.411442
v 0.023738 2.705515 -3.966188
v 0.135052 2.705515 -3.967177
v 0.104047 2.732913 -4.412190
v -0.064425 2.732913 -4.410695
v -0.087575 2.732913 -3.965200
v 0.242412 2.723248 -4.413419
v 0.242412 0.834680 -4.413419
v 0.246326 0.837255 -3.972650
v -0.175701 0.837255 -3.975507
v -0.191888 0.831262 -4.405533
v -0.200865 0.837255 -4.186838
v 0.248378 0.837255 -4.190827
v -0.199877 0.837255 -4.075525
v 0.245377 0.837255 -4.079478
v 0.243400 0.837255 -4.302105
v -0.201854 0.837255 -4.298152
v 0.019785 0.837255 -4.411442
v 0.023738 0.829955 -3.966188
v 0.135052 0.829955 -3.967176
v 0.101289 0.837255 -4.412166
v -0.065602 0.837255 -4.410684
v -0.087575 0.837255 -3.965199
vn 1.0000 -0.0000 -0.0089
vn -0.0540 0.0044 0.9985
vn -0.9991 0.0044 -0.0411
vn -0.0089 -0.0000 -1.0000
vn -1.0000 -0.0000 0.0089
vn 0.9996 -0.0016 -0.0268
vn -0.9747 0.0009 0.2237
vn 1.0000 -0.0016 0.0090
vn 0.0089 -0.0000 1.0000
vn 0.0290 0.0018 0.9996
vn -0.0259 0.0018 -0.9997
vn -0.1119 0.0015 -0.9937
vn 0.1086 0.0027 0.9941
vn 0.9990 0.0024 0.0448
vn 0.9990 -0.0014 0.0448
vn -0.9689 -0.0016 0.2474
vn -0.9689 0.0009 0.2474
vn -0.9689 0.0010 0.2474
vn 0.9980 0.0024 -0.0625
vn 0.9980 -0.0014 -0.0625
vn -0.9675 0.0071 -0.2527
vn -0.1769 -0.0066 0.9842
vn 1.0000 0.0006 -0.0044
vn -0.0852 -0.0067 0.9963
vn -0.9428 0.0073 -0.3332
vn 0.9998 0.0010 -0.0189
vn 0.9996 0.0021 -0.0290
vn 0.9994 0.0024 -0.0357
vn -0.9734 -0.0000 0.2292
vn -0.9743 -0.0013 0.2251
vn -0.9734 -0.0015 0.2292
vn 0.9998 0.0024 0.0180
vn 0.1381 0.0027 0.9904
vn -0.1556 0.0086 -0.9878
vn -0.1555 0.0023 -0.9878
vn -0.0576 0.0067 -0.9983
vn 0.1536 0.0021 0.9881
vn 0.1613 0.0043 0.9869
vn 0.1529 0.0019 0.9882
vn 0.9999 0.0015 -0.0133
vn 1.0000 0.0029 -0.0089
vn 1.0000 0.0015 -0.0044
vn 1.0000 0.0017 0.0045
vn -0.9754 -0.0070 0.2202
vn -0.9758 -0.0017 0.2184
vn -0.9282 0.0050 -0.3720
vn -0.0381 -0.0048 0.9993
vn 1.0000 0.0020 -0.0067
vn -0.0067 -0.0114 0.9999
vn -0.9170 0.0120 -0.3988
vn 0.9999 0.0021 -0.0112
vn 1.0000 0.0041 -0.0089
vn -0.9764 -0.0024 0.2159
vn 0.1619 0.0046 0.9868
vn -0.1907 -0.0145 -0.9815
vn 0.0686 0.0060 0.9976
vn 0.9990 -0.0053 0.0448
vn -0.9689 0.0035 0.2474
vn 0.9980 -0.0053 -0.0625
vn -0.9891 0.0153 -0.1462
vn -0.1769 0.0144 0.9841
vn -0.1454 0.9790 -0.1428
vn -0.0000 -1.0000 -0.0000
vn -0.0379 0.9985 0.0385
vn -0.0568 0.9967 0.0578
vn -0.0568 0.9967 0.0579
vn -0.0257 0.9991 0.0340
vn -0.0000 1.0000 -0.0000
vn -0.0293 0.9959 -0.0858
vn -0.0295 0.9959 -0.0856
vn -0.0579 0.9967 -0.0568
vn 0.0428 0.9990 -0.0147
vn 0.0257 0.9993 -0.0261
vn 0.0568 0.9967 -0.0579
vn 0.0858 0.9959 -0.0293
vn 0.0574 0.9510 0.3037
vn 0.1143 0.9934 -0.0010
vn 0.0229 0.9995 -0.0233
vn 0.0458 0.9979 -0.0466
vn -0.1164 0.9831 0.1413
vn -0.0010 0.9934 -0.1143
vn 0.0738 0.9801 0.1843
vt 0.532902 0.406665
vt 0.545050 0.406747
vt 0.545890 0.315595
vt 0.533415 0.315537
vt 0.498547 0.368984
vt 0.486022 0.369310
vt 0.487497 0.255279
vt 0.499855 0.255106
vt 0.507344 0.393155
vt 0.494258 0.392504
vt 0.494905 0.295142
vt 0.508313 0.295198
vt 0.505479 0.484658
vt 0.495739 0.484406
vt 0.496678 0.399772
vt 0.504241 0.399816
vt 0.534630 0.393333
vt 0.520983 0.393244
vt 0.521729 0.295254
vt 0.535154 0.295310
vt 0.507593 0.406492
vt 0.520238 0.406632
vt 0.520948 0.315479
vt 0.508488 0.315421
vt 0.546756 0.394158
vt 0.548436 0.296501
vt 0.494953 0.406110
vt 0.496035 0.315364
vt 0.517005 0.484748
vt 0.511107 0.484702
vt 0.511808 0.399860
vt 0.519377 0.399904
vt 0.530632 0.367746
vt 0.514577 0.367834
vt 0.515514 0.254887
vt 0.531209 0.254667
vt 0.546713 0.368827
vt 0.546941 0.254447
vt 0.525730 0.484448
vt 0.526948 0.399948
vt 0.512612 0.604620
vt 0.495803 0.607814
vt 0.497239 0.482862
vt 0.513640 0.480782
vt 0.523731 0.566568
vt 0.518228 0.567753
vt 0.516851 0.506232
vt 0.524825 0.509934
vt 0.510422 0.567677
vt 0.502618 0.567601
vt 0.505279 0.506136
vt 0.510930 0.506183
vt 0.546237 0.608257
vt 0.529423 0.604821
vt 0.530056 0.480825
vt 0.546486 0.483207
vt 0.519439 0.595934
vt 0.505341 0.595774
vt 0.506376 0.491112
vt 0.520236 0.491234
vt 0.492722 0.593324
vt 0.505748 0.594394
vt 0.506699 0.497562
vt 0.493872 0.496857
vt 0.518786 0.594595
vt 0.531845 0.594689
vt 0.532390 0.497793
vt 0.519529 0.497784
vt 0.546130 0.596162
vt 0.533546 0.596094
vt 0.534106 0.491356
vt 0.545076 0.491816
vt 0.494823 0.566981
vt 0.495454 0.510095
vt 0.492927 0.593012
vt 0.493612 0.489865
vt 0.482680 0.607910
vt 0.484546 0.483340
vt 0.543319 0.594818
vt 0.544211 0.497899
vt 0.531573 0.643143
vt 0.542873 0.643283
vt 0.495086 0.670297
vt 0.481747 0.670201
vt 0.504824 0.648110
vt 0.492584 0.644592
vt 0.504254 0.595474
vt 0.494516 0.594731
vt 0.533266 0.648468
vt 0.519040 0.648289
vt 0.505272 0.642815
vt 0.518415 0.643006
vt 0.546656 0.648340
vt 0.492147 0.641562
vt 0.516127 0.595598
vt 0.510192 0.595536
vt 0.529107 0.666825
vt 0.512098 0.666546
vt 0.546113 0.670789
vt 0.523183 0.594172
vt 0.511838 0.697856
vt 0.494723 0.701889
vt 0.522858 0.615831
vt 0.515970 0.617410
vt 0.546050 0.702406
vt 0.528947 0.698175
vt 0.518838 0.674761
vt 0.504562 0.674572
vt 0.491856 0.665952
vt 0.505031 0.667297
vt 0.518228 0.667483
vt 0.531435 0.667641
vt 0.546923 0.674723
vt 0.533124 0.674950
vt 0.504051 0.617279
vt 0.494275 0.616479
vt 0.492411 0.670671
vt 0.481275 0.701696
vt 0.542647 0.667787
vt 0.531300 0.691596
vt 0.542427 0.691747
vt 0.494368 0.732779
vt 0.480814 0.732492
vt 0.504307 0.700447
vt 0.492241 0.696171
vt 0.529335 0.721026
vt 0.545058 0.719843
vt 0.545117 0.691659
vt 0.529477 0.692775
vt 0.532985 0.700843
vt 0.518641 0.700645
vt 0.504796 0.691236
vt 0.518044 0.691416
vt 0.547183 0.700519
vt 0.491572 0.689801
vt 0.498005 0.720392
vt 0.513652 0.720709
vt 0.513876 0.692490
vt 0.498310 0.692206
vt 0.528791 0.728829
vt 0.511584 0.728471
vt 0.545989 0.733321
vt 0.488407 0.717118
vt 0.488407 0.689115
vt 0.508259 0.497638
vt 0.495026 0.497403
vt 0.496802 0.505536
vt 0.508021 0.510867
vt 0.524729 0.445553
vt 0.494545 0.445003
vt 0.495081 0.414769
vt 0.525281 0.415326
vt 0.585053 0.446650
vt 0.554898 0.446102
vt 0.555467 0.415882
vt 0.585637 0.416439
vt 0.534715 0.498108
vt 0.521433 0.497859
vt 0.521247 0.511100
vt 0.534471 0.511334
vt 0.547939 0.498343
vt 0.547744 0.508802
vt 0.615192 0.447199
vt 0.615793 0.416995
vt 0.521971 0.471400
vt 0.508735 0.471162
vt 0.508497 0.484403
vt 0.521674 0.484654
vt 0.553764 0.506441
vt 0.523627 0.505907
vt 0.524178 0.475746
vt 0.554331 0.476288
vt 0.613992 0.507508
vt 0.583885 0.506974
vt 0.584469 0.476829
vt 0.614592 0.477370
vt 0.548696 0.471779
vt 0.535204 0.471638
vt 0.534875 0.484890
vt 0.548447 0.485083
vt 0.493476 0.505373
vt 0.494011 0.475205
vt 0.495496 0.470924
vt 0.495261 0.484167
vt 0.508973 0.457915
vt 0.495730 0.457616
vt 0.535448 0.458394
vt 0.522212 0.458154
vt 0.546549 0.458595
vt 0.523077 0.536035
vt 0.492943 0.535509
vt 0.583303 0.537087
vt 0.553197 0.536561
vt 0.613518 0.531317
s 1
usemtl Material.040
f 534/689/219 528/690/219 416/691/219 425/692/219
f 542/693/220 529/694/220 420/695/220 453/696/220
f 536/697/221 530/698/221 418/699/221 430/700/221
f 540/701/222 527/702/222 414/703/222 444/704/222
f 533/705/223 531/706/223 424/707/223 428/708/223
f 535/709/224 532/710/224 422/711/224 431/712/224
f 529/713/225 533/705/225 428/708/225 420/714/225
f 532/710/226 534/689/226 425/692/226 422/711/226
f 527/715/219 535/709/219 431/712/219 414/716/219
f 531/706/223 536/697/223 430/700/223 424/707/223
f 541/717/222 537/718/222 436/719/222 459/720/222
f 539/721/227 538/722/227 434/723/227 448/724/227
f 528/725/228 539/721/228 448/724/228 416/726/228
f 537/718/222 540/701/222 444/704/222 436/719/222
f 530/727/229 541/717/229 459/720/229 418/728/229
f 538/722/227 542/693/227 453/696/227 434/723/227
f 489/729/227 493/730/227 478/731/227 474/732/227
f 481/733/230 492/734/230 477/735/230 466/736/230
f 488/737/222 491/738/222 476/739/222 473/740/222
f 479/741/231 490/742/231 475/743/231 464/744/231
f 490/742/227 489/729/227 474/732/227 475/743/227
f 492/734/222 488/737/222 473/740/222 477/735/222
f 482/745/223 487/746/223 472/747/223 467/748/223
f 494/749/219 486/750/219 471/751/219 463/752/219
f 483/753/232 485/754/232 470/755/233 468/756/233
f 480/757/234 484/758/234 469/759/235 465/760/236
f 486/750/237 483/753/237 468/756/238 471/751/238
f 484/758/223 482/745/223 467/748/223 469/759/223
f 491/738/222 494/761/222 463/762/222 476/739/222
f 487/746/239 481/763/239 466/764/239 472/747/239
f 493/730/240 480/765/240 465/766/240 478/731/240
f 485/754/219 479/767/219 464/768/219 470/755/219
f 501/769/241 495/770/219 479/767/219 485/754/219
f 509/771/242 496/772/242 480/765/242 493/730/242
f 503/773/243 497/774/243 481/763/243 487/746/243
f 507/775/222 510/776/222 494/761/222 491/738/222
f 500/777/223 498/778/223 482/745/223 484/758/223
f 502/779/244 499/780/245 483/753/246 486/750/246
f 496/781/247 500/777/248 484/758/249 480/757/249
f 499/780/250 501/769/250 485/754/250 483/753/250
f 510/782/219 502/779/244 486/750/219 494/749/219
f 498/778/223 503/773/223 487/746/223 482/745/223
f 508/783/222 504/784/222 488/737/222 492/734/222
f 506/785/227 505/786/227 489/729/227 490/742/227
f 495/787/251 506/785/251 490/742/251 479/741/251
f 504/784/222 507/775/222 491/738/222 488/737/222
f 497/788/252 508/783/252 492/734/252 481/733/252
f 505/786/227 509/771/227 493/730/227 489/729/227
f 521/789/227 525/790/227 509/771/227 505/786/227
f 513/791/253 524/792/253 508/783/253 497/788/253
f 466/736/254 477/735/254 541/717/254 530/727/254
f 511/793/255 522/794/256 506/785/257 495/787/257
f 522/794/227 521/789/227 505/786/227 506/785/227
f 474/732/227 478/731/227 542/693/227 538/722/227
f 514/795/223 519/796/223 503/773/223 498/778/223
f 526/797/219 518/798/258 502/779/244 510/782/219
f 515/799/259 517/800/260 501/769/241 499/780/261
f 512/801/262 516/802/263 500/777/248 496/781/247
f 518/798/258 515/799/259 499/780/245 502/779/244
f 516/802/223 514/795/223 498/778/223 500/777/223
f 523/803/222 526/804/222 510/776/222 507/775/222
f 519/796/264 513/805/264 497/774/264 503/773/264
f 525/790/265 512/806/265 496/772/265 509/771/265
f 517/800/260 511/807/219 495/770/219 501/769/241
f 427/808/266 415/809/219 511/807/219 517/800/260
f 458/810/267 419/811/267 512/806/267 525/790/267
f 432/812/268 417/813/268 513/805/268 519/796/268
f 449/814/222 413/815/222 526/816/222 523/817/222
f 426/818/223 423/819/223 514/795/223 516/802/223
f 429/820/269 421/821/270 515/799/259 518/798/258
f 419/822/271 426/818/271 516/802/263 512/801/262
f 421/821/270 427/808/266 517/800/260 515/799/259
f 413/823/219 429/820/269 518/798/258 526/797/219
f 423/819/223 432/812/223 519/796/223 514/795/223
f 454/824/222 435/825/222 520/826/222 524/827/222
f 443/828/227 433/829/227 521/789/227 522/794/227
f 415/830/272 443/828/272 522/794/256 511/793/255
f 435/825/222 449/814/222 523/817/222 520/826/222
f 417/831/273 454/824/273 524/827/273 513/832/273
f 433/829/227 458/810/227 525/790/227 521/789/227
f 464/744/274 475/743/274 539/721/274 528/725/274
f 475/743/227 474/732/227 538/722/227 539/721/227
f 467/748/223 472/747/223 536/697/223 531/706/223
f 463/752/219 471/751/219 535/709/219 527/715/219
f 468/756/233 470/755/233 534/689/275 532/710/275
f 465/760/236 469/759/235 533/705/276 529/713/276
f 471/751/238 468/756/238 532/710/277 535/709/277
f 469/759/223 467/748/223 531/706/223 533/705/223
f 476/739/222 463/762/222 527/702/222 540/701/222
f 472/747/278 466/764/278 530/698/278 536/697/278
f 478/731/279 465/766/279 529/694/279 542/693/279
f 470/755/219 464/768/219 528/690/219 534/689/219
usemtl Material.041
f 462/833/280 454/834/280 417/835/280 432/836/280
f 452/837/281 444/838/281 414/839/281 431/840/281
f 451/841/281 450/842/281 422/843/281 425/844/281
f 461/845/282 460/846/283 423/847/284 426/848/285
f 458/849/286 461/845/282 426/848/285 419/850/286
f 448/851/281 451/841/281 425/844/281 416/852/281
f 450/842/281 452/837/281 431/840/281 422/843/281
f 460/846/287 462/833/288 432/836/289 423/847/289
f 445/853/290 447/854/291 442/855/292 438/856/293
f 455/857/281 457/858/281 441/859/281 437/860/281
f 453/861/281 456/862/281 440/863/281 434/864/281
f 443/865/294 446/866/294 439/867/294 433/868/294
f 446/866/295 445/853/290 438/856/293 439/867/295
f 456/862/281 455/857/281 437/860/281 440/863/281
f 457/858/281 459/869/281 436/870/281 441/859/281
f 447/854/291 449/871/296 435/872/286 442/855/286
f 429/873/296 413/874/297 449/871/296 447/854/291
f 427/875/286 421/876/286 445/853/290 446/866/286
f 415/877/298 427/875/298 446/866/298 443/865/298
f 421/876/286 429/873/296 447/854/291 445/853/290
f 437/860/281 441/859/281 452/837/281 450/842/281
f 434/864/281 440/863/281 451/841/281 448/851/281
f 440/863/281 437/860/281 450/842/281 451/841/281
f 441/859/281 436/870/281 444/838/281 452/837/281
f 430/878/281 418/879/281 459/869/281 457/858/281
f 428/880/281 424/881/281 455/857/281 456/862/281
f 420/882/281 428/880/281 456/862/281 453/861/281
f 424/881/281 430/878/281 457/858/281 455/857/281
f 438/856/299 442/855/299 462/833/288 460/846/287
f 433/868/300 439/867/300 461/845/300 458/849/300
f 439/867/283 438/856/283 460/846/283 461/845/282
f 442/855/286 435/872/286 454/834/286 462/833/286
