# Blender 4.4.3
# www.blender.org
mtllib sign.mtl
o Cylinder
g sign1
v 0.000000 0.000000 -3.150000
v 0.000000 6.000000 -3.150000
v 0.029264 0.000000 -3.147118
v 0.029264 6.000000 -3.147118
v 0.057403 0.000000 -3.138582
v 0.057403 6.000000 -3.138582
v 0.083336 0.000000 -3.124720
v 0.083336 6.000000 -3.124720
v 0.106066 0.000000 -3.106066
v 0.106066 6.000000 -3.106066
v 0.124720 0.000000 -3.083336
v 0.124720 6.000000 -3.083336
v 0.138582 0.000000 -3.057403
v 0.138582 6.000000 -3.057403
v 0.147118 0.000000 -3.029263
v 0.147118 6.000000 -3.029263
v 0.150000 0.000000 -3.000000
v 0.150000 6.000000 -3.000000
v 0.147118 0.000000 -2.970737
v 0.147118 6.000000 -2.970737
v 0.138582 0.000000 -2.942597
v 0.138582 6.000000 -2.942597
v 0.124720 0.000000 -2.916664
v 0.124720 6.000000 -2.916664
v 0.106066 0.000000 -2.893934
v 0.106066 6.000000 -2.893934
v 0.083336 0.000000 -2.875280
v 0.083336 6.000000 -2.875280
v 0.057403 0.000000 -2.861418
v 0.057403 6.000000 -2.861418
v 0.029264 0.000000 -2.852882
v 0.029264 6.000000 -2.852882
v 0.000000 0.000000 -2.850000
v 0.000000 6.000000 -2.850000
v -0.029264 0.000000 -2.852882
v -0.029264 6.000000 -2.852882
v -0.057403 0.000000 -2.861418
v -0.057403 6.000000 -2.861418
v -0.083336 0.000000 -2.875280
v -0.083336 6.000000 -2.875280
v -0.106066 0.000000 -2.893934
v -0.106066 6.000000 -2.893934
v -0.124720 0.000000 -2.916664
v -0.124720 6.000000 -2.916664
v -0.138582 0.000000 -2.942597
v -0.138582 6.000000 -2.942597
v -0.147118 0.000000 -2.970737
v -0.147118 6.000000 -2.970737
v -0.150000 0.000000 -3.000000
v -0.150000 6.000000 -3.000000
v -0.147118 0.000000 -3.029263
v -0.147118 6.000000 -3.029263
v -0.138582 0.000000 -3.057403
v -0.138582 6.000000 -3.057403
v -0.124720 0.000000 -3.083336
v -0.124720 6.000000 -3.083336
v -0.106066 0.000000 -3.106066
v -0.106066 6.000000 -3.106066
v -0.083336 0.000000 -3.124720
v -0.083336 6.000000 -3.124720
v -0.057403 0.000000 -3.138582
v -0.057403 6.000000 -3.138582
v -0.029264 0.000000 -3.147118
v -0.029264 6.000000 -3.147118
vn 0.0980 -0.0000 -0.9952
vn 0.2903 -0.0000 -0.9569
vn 0.4714 -0.0000 -0.8819
vn 0.6344 -0.0000 -0.7730
vn 0.7730 -0.0000 -0.6344
vn 0.8819 -0.0000 -0.4714
vn 0.9569 -0.0000 -0.2903
vn 0.9952 -0.0000 -0.0980
vn 0.9952 -0.0000 0.0980
vn 0.9569 -0.0000 0.2903
vn 0.8819 -0.0000 0.4714
vn 0.7730 -0.0000 0.6344
vn 0.6344 -0.0000 0.7730
vn 0.4714 -0.0000 0.8819
vn 0.2903 -0.0000 0.9569
vn 0.0980 -0.0000 0.9952
vn -0.0980 -0.0000 0.9952
vn -0.2903 -0.0000 0.9569
vn -0.4714 -0.0000 0.8819
vn -0.6344 -0.0000 0.7730
vn -0.7730 -0.0000 0.6344
vn -0.8819 -0.0000 0.4714
vn -0.9569 -0.0000 0.2903
vn -0.9952 -0.0000 0.0980
vn -0.9952 -0.0000 -0.0980
vn -0.9569 -0.0000 -0.2903
vn -0.8819 -0.0000 -0.4714
vn -0.7730 -0.0000 -0.6344
vn -0.6344 -0.0000 -0.7730
vn -0.4714 -0.0000 -0.8819
vn -0.0000 1.0000 -0.0000
vn -0.2903 -0.0000 -0.9569
vn -0.0980 -0.0000 -0.9952
vn -0.0000 -1.0000 -0.0000
vt 0.679942 0.004500
vt 0.961442 0.004559
vt 0.961440 0.039696
vt 0.679940 0.039637
vt 0.961438 0.074834
vt 0.679938 0.074774
vt 0.961435 0.109972
vt 0.679935 0.109912
vt 0.961433 0.145109
vt 0.679933 0.145050
vt 0.961431 0.180247
vt 0.679931 0.180187
vt 0.961428 0.215384
vt 0.679928 0.215325
vt 0.961426 0.250522
vt 0.679926 0.250462
vt 0.961424 0.285659
vt 0.679924 0.285600
vt 0.961421 0.320797
vt 0.679921 0.320737
vt 0.961419 0.355934
vt 0.679919 0.355875
vt 0.961417 0.391072
vt 0.679917 0.391012
vt 0.961414 0.426209
vt 0.679914 0.426150
vt 0.961412 0.461347
vt 0.679912 0.461288
vt 0.961410 0.496484
vt 0.679910 0.496425
vt 0.961407 0.531622
vt 0.679907 0.531563
vt 0.961405 0.566760
vt 0.679905 0.566700
vt 0.961403 0.601897
vt 0.679902 0.601838
vt 0.961400 0.637035
vt 0.679900 0.636975
vt 0.961398 0.672172
vt 0.679898 0.672113
vt 0.961395 0.707310
vt 0.679895 0.707250
vt 0.961393 0.742447
vt 0.679893 0.742388
vt 0.961391 0.777585
vt 0.679891 0.777525
vt 0.961388 0.812722
vt 0.679888 0.812663
vt 0.961386 0.847860
vt 0.679886 0.847800
vt 0.961384 0.882997
vt 0.679884 0.882938
vt 0.961381 0.918135
vt 0.679881 0.918076
vt 0.961379 0.953272
vt 0.679879 0.953213
vt 0.961377 0.988410
vt 0.679877 0.988351
vt 0.961374 1.023548
vt 0.679874 1.023488
vt 0.961372 1.058685
vt 0.679872 1.058626
vt 0.185895 0.485388
vt 0.156343 0.490000
vt 0.126792 0.485388
vt 0.098376 0.471731
vt 0.072188 0.449553
vt 0.049234 0.419706
vt 0.030396 0.383337
vt 0.016398 0.341844
vt 0.007778 0.296822
vt 0.004868 0.250000
vt 0.007778 0.203178
vt 0.016398 0.158156
vt 0.030396 0.116663
vt 0.049234 0.080294
vt 0.072188 0.050447
vt 0.098376 0.028269
vt 0.126792 0.014612
vt 0.156343 0.010000
vt 0.185895 0.014612
vt 0.214311 0.028269
vt 0.240499 0.050447
vt 0.263453 0.080294
vt 0.282291 0.116663
vt 0.296289 0.158156
vt 0.304909 0.203178
vt 0.307819 0.250000
vt 0.304909 0.296822
vt 0.296289 0.341844
vt 0.282291 0.383337
vt 0.263453 0.419706
vt 0.240499 0.449553
vt 0.214311 0.471731
vt 0.961370 1.093823
vt 0.679870 1.093763
vt 0.961367 1.128960
vt 0.679867 1.128901
vt 0.811909 0.490000
vt 0.848219 0.485388
vt 0.883135 0.471731
vt 0.915313 0.449553
vt 0.943517 0.419706
vt 0.966664 0.383337
vt 0.983863 0.341844
vt 0.994455 0.296822
vt 0.998031 0.250000
vt 0.994455 0.203178
vt 0.983863 0.158156
vt 0.966664 0.116663
vt 0.943517 0.080294
vt 0.915313 0.050447
vt 0.883135 0.028269
vt 0.848219 0.014612
vt 0.811909 0.010000
vt 0.775598 0.014612
vt 0.740683 0.028269
vt 0.708505 0.050447
vt 0.680300 0.080294
vt 0.657153 0.116663
vt 0.639954 0.158156
vt 0.629363 0.203178
vt 0.625786 0.250000
vt 0.629363 0.296822
vt 0.639954 0.341844
vt 0.657153 0.383337
vt 0.680300 0.419706
vt 0.708505 0.449553
vt 0.740683 0.471731
vt 0.775598 0.485388
s 0
usemtl Material.003
f 1/1/1 2/2/1 4/3/1 3/4/1
f 3/4/2 4/3/2 6/5/2 5/6/2
f 5/6/3 6/5/3 8/7/3 7/8/3
f 7/8/4 8/7/4 10/9/4 9/10/4
f 9/10/5 10/9/5 12/11/5 11/12/5
f 11/12/6 12/11/6 14/13/6 13/14/6
f 13/14/7 14/13/7 16/15/7 15/16/7
f 15/16/8 16/15/8 18/17/8 17/18/8
f 17/18/9 18/17/9 20/19/9 19/20/9
f 19/20/10 20/19/10 22/21/10 21/22/10
f 21/22/11 22/21/11 24/23/11 23/24/11
f 23/24/12 24/23/12 26/25/12 25/26/12
f 25/26/13 26/25/13 28/27/13 27/28/13
f 27/28/14 28/27/14 30/29/14 29/30/14
f 29/30/15 30/29/15 32/31/15 31/32/15
f 31/32/16 32/31/16 34/33/16 33/34/16
f 33/34/17 34/33/17 36/35/17 35/36/17
f 35/36/18 36/35/18 38/37/18 37/38/18
f 37/38/19 38/37/19 40/39/19 39/40/19
f 39/40/20 40/39/20 42/41/20 41/42/20
f 41/42/21 42/41/21 44/43/21 43/44/21
f 43/44/22 44/43/22 46/45/22 45/46/22
f 45/46/23 46/45/23 48/47/23 47/48/23
f 47/48/24 48/47/24 50/49/24 49/50/24
f 49/50/25 50/49/25 52/51/25 51/52/25
f 51/52/26 52/51/26 54/53/26 53/54/26
f 53/54/27 54/53/27 56/55/27 55/56/27
f 55/56/28 56/55/28 58/57/28 57/58/28
f 57/58/29 58/57/29 60/59/29 59/60/29
f 59/60/30 60/59/30 62/61/30 61/62/30
f 4/63/31 2/64/31 64/65/31 62/66/31 60/67/31 58/68/31 56/69/31 54/70/31 52/71/31 50/72/31 48/73/31 46/74/31 44/75/31 42/76/31 40/77/31 38/78/31 36/79/31 34/80/31 32/81/31 30/82/31 28/83/31 26/84/31 24/85/31 22/86/31 20/87/31 18/88/31 16/89/31 14/90/31 12/91/31 10/92/31 8/93/31 6/94/31
f 61/62/32 62/61/32 64/95/32 63/96/32
f 63/96/33 64/95/33 2/97/33 1/98/33
f 1/99/34 3/100/34 5/101/34 7/102/34 9/103/34 11/104/34 13/105/34 15/106/34 17/107/34 19/108/34 21/109/34 23/110/34 25/111/34 27/112/34 29/113/34 31/114/34 33/115/34 35/116/34 37/117/34 39/118/34 41/119/34 43/120/34 45/121/34 47/122/34 49/123/34 51/124/34 53/125/34 55/126/34 57/127/34 59/128/34 61/129/34 63/130/34

v 0.000000 0.000000 2.850000
v 0.000000 6.000000 2.850000
v 0.029264 0.000000 2.852882
v 0.029264 6.000000 2.852882
v 0.057403 0.000000 2.861418
v 0.057403 6.000000 2.861418
v 0.083336 0.000000 2.875280
v 0.083336 6.000000 2.875280
v 0.106066 0.000000 2.893934
v 0.106066 6.000000 2.893934
v 0.124720 0.000000 2.916664
v 0.124720 6.000000 2.916664
v 0.138582 0.000000 2.942597
v 0.138582 6.000000 2.942597
v 0.147118 0.000000 2.970737
v 0.147118 6.000000 2.970737
v 0.150000 0.000000 3.000000
v 0.150000 6.000000 3.000000
v 0.147118 0.000000 3.029263
v 0.147118 6.000000 3.029263
v 0.138582 0.000000 3.057403
v 0.138582 6.000000 3.057403
v 0.124720 0.000000 3.083336
v 0.124720 6.000000 3.083336
v 0.106066 0.000000 3.106066
v 0.106066 6.000000 3.106066
v 0.083336 0.000000 3.124720
v 0.083336 6.000000 3.124720
v 0.057403 0.000000 3.138582
v 0.057403 6.000000 3.138582
v 0.029264 0.000000 3.147118
v 0.029264 6.000000 3.147118
v 0.000000 0.000000 3.150000
v 0.000000 6.000000 3.150000
v -0.029264 0.000000 3.147118
v -0.029264 6.000000 3.147118
v -0.057403 0.000000 3.138582
v -0.057403 6.000000 3.138582
v -0.083336 0.000000 3.124720
v -0.083336 6.000000 3.124720
v -0.106066 0.000000 3.106066
v -0.106066 6.000000 3.106066
v -0.124720 0.000000 3.083336
v -0.124720 6.000000 3.083336
v -0.138582 0.000000 3.057403
v -0.138582 6.000000 3.057403
v -0.147118 0.000000 3.029263
v -0.147118 6.000000 3.029263
v -0.150000 0.000000 3.000000
v -0.150000 6.000000 3.000000
v -0.147118 0.000000 2.970737
v -0.147118 6.000000 2.970737
v -0.138582 0.000000 2.942597
v -0.138582 6.000000 2.942597
v -0.124720 0.000000 2.916664
v -0.124720 6.000000 2.916664
v -0.106066 0.000000 2.893934
v -0.106066 6.000000 2.893934
v -0.083336 0.000000 2.875280
v -0.083336 6.000000 2.875280
v -0.057403 0.000000 2.861418
v -0.057403 6.000000 2.861418
v -0.029264 0.000000 2.852882
v -0.029264 6.000000 2.852882
vn 0.0980 -0.0000 -0.9952
vn 0.2903 -0.0000 -0.9569
vn 0.4714 -0.0000 -0.8819
vn 0.6344 -0.0000 -0.7730
vn 0.7730 -0.0000 -0.6344
vn 0.8819 -0.0000 -0.4714
vn 0.9569 -0.0000 -0.2903
vn 0.9952 -0.0000 -0.0980
vn 0.9952 -0.0000 0.0980
vn 0.9569 -0.0000 0.2903
vn 0.8819 -0.0000 0.4714
vn 0.7730 -0.0000 0.6344
vn 0.6344 -0.0000 0.7730
vn 0.4714 -0.0000 0.8819
vn 0.2903 -0.0000 0.9569
vn 0.0980 -0.0000 0.9952
vn -0.0980 -0.0000 0.9952
vn -0.2903 -0.0000 0.9569
vn -0.4714 -0.0000 0.8819
vn -0.6344 -0.0000 0.7730
vn -0.7730 -0.0000 0.6344
vn -0.8819 -0.0000 0.4714
vn -0.9569 -0.0000 0.2903
vn -0.9952 -0.0000 0.0980
vn -0.9952 -0.0000 -0.0980
vn -0.9569 -0.0000 -0.2903
vn -0.8819 -0.0000 -0.4714
vn -0.7730 -0.0000 -0.6344
vn -0.6344 -0.0000 -0.7730
vn -0.4714 -0.0000 -0.8819
vn -0.0000 1.0000 -0.0000
vn -0.2903 -0.0000 -0.9569
vn -0.0980 -0.0000 -0.9952
vn -0.0000 -1.0000 -0.0000
vt 0.695818 -0.138119
vt 0.977318 -0.138080
vt 0.977315 -0.082574
vt 0.695815 -0.082613
vt 0.977313 -0.027068
vt 0.695813 -0.027106
vt 0.977311 0.028439
vt 0.695811 0.028400
vt 0.977308 0.083945
vt 0.695808 0.083906
vt 0.977306 0.139451
vt 0.695806 0.139412
vt 0.977303 0.194957
vt 0.695803 0.194918
vt 0.977301 0.250463
vt 0.695801 0.250425
vt 0.977298 0.305970
vt 0.695798 0.305931
vt 0.977296 0.361476
vt 0.695796 0.361437
vt 0.977294 0.416982
vt 0.695794 0.416943
vt 0.977291 0.472488
vt 0.695791 0.472449
vt 0.977289 0.527995
vt 0.695789 0.527956
vt 0.977286 0.583501
vt 0.695786 0.583462
vt 0.977284 0.639007
vt 0.695784 0.638968
vt 0.977281 0.694513
vt 0.695781 0.694474
vt 0.977279 0.750019
vt 0.695779 0.749981
vt 0.977277 0.805526
vt 0.695777 0.805487
vt 0.977274 0.861032
vt 0.695774 0.860993
vt 0.977272 0.916538
vt 0.695772 0.916499
vt 0.977269 0.972044
vt 0.695769 0.972005
vt 0.977267 1.027550
vt 0.695767 1.027512
vt 0.977264 1.083057
vt 0.695764 1.083018
vt 0.977262 1.138563
vt 0.695762 1.138524
vt 0.977260 1.194069
vt 0.695760 1.194030
vt 0.977257 1.249575
vt 0.695757 1.249537
vt 0.977255 1.305082
vt 0.695755 1.305043
vt 0.977252 1.360588
vt 0.695752 1.360549
vt 0.977250 1.416094
vt 0.695750 1.416055
vt 0.977247 1.471600
vt 0.695747 1.471561
vt 0.977245 1.527107
vt 0.695745 1.527068
vt 0.186711 0.485388
vt 0.156343 0.490000
vt 0.125976 0.485388
vt 0.096776 0.471731
vt 0.069865 0.449553
vt 0.046277 0.419706
vt 0.026919 0.383337
vt 0.012535 0.341844
vt 0.003677 0.296822
vt 0.000686 0.250000
vt 0.003677 0.203178
vt 0.012535 0.158156
vt 0.026919 0.116663
vt 0.046277 0.080294
vt 0.069865 0.050447
vt 0.096776 0.028269
vt 0.125976 0.014612
vt 0.156343 0.010000
vt 0.186711 0.014612
vt 0.215911 0.028269
vt 0.242822 0.050447
vt 0.266410 0.080294
vt 0.285768 0.116663
vt 0.300152 0.158156
vt 0.309010 0.203178
vt 0.312001 0.250000
vt 0.309010 0.296822
vt 0.300152 0.341844
vt 0.285768 0.383337
vt 0.266410 0.419706
vt 0.242822 0.449553
vt 0.215911 0.471731
vt 0.977243 1.582613
vt 0.695743 1.582574
vt 0.977240 1.638119
vt 0.695740 1.638080
vt 0.811909 0.490000
vt 0.847372 0.485388
vt 0.881473 0.471731
vt 0.912901 0.449553
vt 0.940447 0.419706
vt 0.963054 0.383337
vt 0.979853 0.341844
vt 0.990197 0.296822
vt 0.993690 0.250000
vt 0.990197 0.203178
vt 0.979853 0.158156
vt 0.963054 0.116663
vt 0.940447 0.080294
vt 0.912901 0.050447
vt 0.881473 0.028269
vt 0.847372 0.014612
vt 0.811909 0.010000
vt 0.776445 0.014612
vt 0.742344 0.028269
vt 0.710916 0.050447
vt 0.683370 0.080294
vt 0.660763 0.116663
vt 0.643965 0.158156
vt 0.633620 0.203178
vt 0.630127 0.250000
vt 0.633620 0.296822
vt 0.643965 0.341844
vt 0.660763 0.383337
vt 0.683370 0.419706
vt 0.710916 0.449553
vt 0.742344 0.471731
vt 0.776445 0.485388
s 0
usemtl Material.001
f 65/131/35 66/132/35 68/133/35 67/134/35
f 67/134/36 68/133/36 70/135/36 69/136/36
f 69/136/37 70/135/37 72/137/37 71/138/37
f 71/138/38 72/137/38 74/139/38 73/140/38
f 73/140/39 74/139/39 76/141/39 75/142/39
f 75/142/40 76/141/40 78/143/40 77/144/40
f 77/144/41 78/143/41 80/145/41 79/146/41
f 79/146/42 80/145/42 82/147/42 81/148/42
f 81/148/43 82/147/43 84/149/43 83/150/43
f 83/150/44 84/149/44 86/151/44 85/152/44
f 85/152/45 86/151/45 88/153/45 87/154/45
f 87/154/46 88/153/46 90/155/46 89/156/46
f 89/156/47 90/155/47 92/157/47 91/158/47
f 91/158/48 92/157/48 94/159/48 93/160/48
f 93/160/49 94/159/49 96/161/49 95/162/49
f 95/162/50 96/161/50 98/163/50 97/164/50
f 97/164/51 98/163/51 100/165/51 99/166/51
f 99/166/52 100/165/52 102/167/52 101/168/52
f 101/168/53 102/167/53 104/169/53 103/170/53
f 103/170/54 104/169/54 106/171/54 105/172/54
f 105/172/55 106/171/55 108/173/55 107/174/55
f 107/174/56 108/173/56 110/175/56 109/176/56
f 109/176/57 110/175/57 112/177/57 111/178/57
f 111/178/58 112/177/58 114/179/58 113/180/58
f 113/180/59 114/179/59 116/181/59 115/182/59
f 115/182/60 116/181/60 118/183/60 117/184/60
f 117/184/61 118/183/61 120/185/61 119/186/61
f 119/186/62 120/185/62 122/187/62 121/188/62
f 121/188/63 122/187/63 124/189/63 123/190/63
f 123/190/64 124/189/64 126/191/64 125/192/64
f 68/193/65 66/194/65 128/195/65 126/196/65 124/197/65 122/198/65 120/199/65 118/200/65 116/201/65 114/202/65 112/203/65 110/204/65 108/205/65 106/206/65 104/207/65 102/208/65 100/209/65 98/210/65 96/211/65 94/212/65 92/213/65 90/214/65 88/215/65 86/216/65 84/217/65 82/218/65 80/219/65 78/220/65 76/221/65 74/222/65 72/223/65 70/224/65
f 125/192/66 126/191/66 128/225/66 127/226/66
f 127/226/67 128/225/67 66/227/67 65/228/67
f 65/229/68 67/230/68 69/231/68 71/232/68 73/233/68 75/234/68 77/235/68 79/236/68 81/237/68 83/238/68 85/239/68 87/240/68 89/241/68 91/242/68 93/243/68 95/244/68 97/245/68 99/246/68 101/247/68 103/248/68 105/249/68 107/250/68 109/251/68 111/252/68 113/253/68 115/254/68 117/255/68 119/256/68 121/257/68 123/258/68 125/259/68 127/260/68

v -0.030000 3.800000 2.900000
v -0.030000 5.800000 2.900000
v -0.030000 3.800000 -2.900000
v -0.030000 5.800000 -2.900000
v 0.030000 3.800000 2.900000
v 0.030000 5.800000 2.900000
v 0.030000 3.800000 -2.900000
v 0.030000 5.800000 -2.900000
vn -1.0000 -0.0000 -0.0000
vn -0.0000 -0.0000 -1.0000
vn 1.0000 -0.0000 -0.0000
vn -0.0000 -0.0000 1.0000
vn -0.0000 -1.0000 -0.0000
vn -0.0000 1.0000 -0.0000
vt 0.998973 0.001659
vt 0.998973 0.998339
vt 0.001027 0.998339
vt 0.001027 0.001659
vt 0.375000 0.250000
vt 0.625000 0.250000
vt 0.625000 0.500000
vt 0.375000 0.500000
vt 0.995798 0.005420
vt 1.000561 0.999280
vt 0.000233 0.999280
vt 0.000233 0.005420
vt 0.375000 0.750000
vt 0.625000 0.750000
vt 0.625000 1.000000
vt 0.375000 1.000000
vt 0.674241 0.015039
vt 0.924241 0.015039
vt 0.924241 0.989661
vt 0.674241 0.989661
vt 0.644049 0.009400
vt 0.894049 0.009400
vt 0.894049 0.989661
vt 0.644049 0.989661
s 0
usemtl Material.002
f 129/261/69 130/262/69 132/263/69 131/264/69
f 131/265/70 132/266/70 136/267/70 135/268/70
f 135/269/71 136/270/71 134/271/71 133/272/71
f 133/273/72 134/274/72 130/275/72 129/276/72
f 131/277/73 135/278/73 133/279/73 129/280/73
f 136/281/74 132/282/74 130/283/74 134/284/74
