# Blender 4.4.3
# www.blender.org
mtllib skybox.mtl
o Cube
v 5.710190 5.710190 -5.710190
v 5.710190 -5.710190 -5.710190
v 5.710190 5.710190 5.710190
v 5.710190 -5.710190 5.710190
v -5.710190 5.710190 -5.710190
v -5.710190 -5.710190 -5.710190
v -5.710190 5.710190 5.710190
v -5.710190 -5.710190 5.710190
vn -0.0000 -1.0000 -0.0000
vn -0.0000 -0.0000 -1.0000
vn 1.0000 -0.0000 -0.0000
vn -0.0000 1.0000 -0.0000
vn -1.0000 -0.0000 -0.0000
vn -0.0000 -0.0000 1.0000
vt 0.003268 0.358460
vt 0.003268 0.999039
vt 0.777441 1.000831
vt 0.777441 0.360251
vt 0.233434 0.103562
vt 0.002705 0.103486
vt 0.002629 0.374367
vt 0.233358 0.374443
vt 0.999604 0.103054
vt 0.706043 0.101817
vt 0.704805 0.372694
vt 0.998366 0.373931
vt 0.897204 0.913871
vt 0.897204 0.988289
vt 0.991772 0.988289
vt 0.991772 0.913871
vt 0.465616 0.101641
vt 0.234893 0.103494
vt 0.236746 0.374367
vt 0.467469 0.372514
vt 0.701246 0.101500
vt 0.470517 0.101706
vt 0.470723 0.372586
vt 0.701452 0.372380
s 0
usemtl Material
g skybox
f 1/1/1 3/2/1 7/3/1 5/4/1
f 4/5/2 8/6/2 7/7/2 3/8/2
f 8/9/3 6/10/3 5/11/3 7/12/3
f 6/13/4 8/14/4 4/15/4 2/16/4
f 2/17/5 4/18/5 3/19/5 1/20/5
f 6/21/6 2/22/6 1/23/6 5/24/6
